<svg xmlns="http://www.w3.org/2000/svg" xmlns:xlink="http://www.w3.org/1999/xlink" width="350" zoomAndPan="magnify" viewBox="0 0 262.5 37.5" height="50" preserveAspectRatio="xMidYMid meet" version="1.0"><defs><g/><clipPath id="fcdd35d15f"><path d="M 1.480469 0 L 260.527344 0 L 260.527344 37.007812 L 1.480469 37.007812 Z M 1.480469 0 " clip-rule="nonzero"/></clipPath></defs><g clip-path="url(#fcdd35d15f)"><path stroke-linecap="butt" transform="matrix(0.0769095, 0, 0, 0.0769095, 5.180921, -6.842098)" fill="none" stroke-linejoin="miter" d="M 214.572575 391.824943 C 197.557857 390.098076 181.00025 389.488593 164.747385 389.894915 C 148.54531 390.352027 132.089284 392.434425 115.379307 396.243691 C 115.125356 398.275299 114.922195 400.306907 114.769824 402.236935 C 114.617454 404.065382 114.566663 406.0462 114.566663 408.128598 C 114.820614 418.59138 115.176146 429.054162 115.633258 439.466154 C 116.039579 449.827356 116.395111 460.290138 116.699852 470.8545 C 116.953803 482.485457 113.144538 491.627694 105.221266 498.17963 C 97.348784 504.833147 87.749436 507.118706 76.42322 505.036308 C 69.058641 503.868133 62.811445 500.66835 57.681635 495.386169 C 52.602614 490.103988 49.605992 483.399681 48.691769 475.273248 C 48.133076 468.467361 47.625174 461.509103 47.168063 454.398474 C 46.761741 447.237055 46.55858 440.126427 46.55858 433.066589 C 45.949098 409.703095 45.847517 386.390391 46.101468 363.128478 C 46.40621 339.866564 48.133076 316.40149 51.332859 292.784045 C 53.161307 279.273851 56.51346 264.798642 61.44011 249.30763 C 66.41755 233.816618 72.766325 219.138249 80.486436 205.272523 C 88.257338 191.356007 97.501155 179.013988 108.116307 168.195674 C 118.833041 157.377361 130.870319 149.70804 144.329723 145.289292 C 154.894085 141.784768 165.712399 140.057901 176.784663 140.057901 C 187.907718 140.057901 198.624451 141.886349 208.985653 145.644824 C 219.448435 149.250928 229.047783 154.73627 237.834489 161.999269 C 246.570404 169.262269 253.934983 178.353715 259.775857 189.222819 C 267.597548 204.104349 273.286051 219.3922 276.790575 235.035583 C 280.345889 250.678966 282.580658 266.830251 283.444092 283.540228 C 284.866218 313.608029 285.170959 343.421878 284.307525 372.981777 C 283.444092 402.541676 282.275917 432.253945 280.752211 462.067795 C 279.888778 480.80938 271.457604 492.440337 255.357109 497.113036 C 249.516236 498.890693 243.929313 499.246224 238.647132 498.17963 C 233.364951 497.163826 228.793832 495.132218 224.832196 492.084806 C 220.921351 488.986603 217.772358 485.075758 215.436009 480.301478 C 213.048869 475.425619 211.880694 470.092647 211.880694 464.200984 C 212.185436 454.601635 212.540967 445.002287 212.947289 435.504518 C 213.455191 426.00675 214.013883 416.458192 214.572575 406.808053 Z M 215.436009 324.781873 C 215.994701 323.004216 216.299442 321.37893 216.299442 319.956804 C 215.436009 305.887918 214.674156 292.225353 214.013883 278.969109 C 213.455191 265.611286 211.118841 252.659784 207.055625 240.063813 C 202.433716 226.350458 196.288102 217.716123 188.669571 214.059229 C 181.101831 210.351544 173.127769 210.757865 164.747385 215.328984 C 156.417792 219.849312 148.44373 227.924954 140.774409 239.657491 C 133.206668 251.339238 127.264214 265.509705 122.896257 282.168892 C 119.036201 296.237779 117.106174 311.42405 117.106174 327.778495 C 133.816151 327.219803 150.221387 326.711901 166.271091 326.30558 C 182.320796 325.848468 198.726032 325.340566 215.436009 324.781873 Z M 387.360849 503.309441 C 387.360849 505.595 387.51322 507.829769 387.817961 510.064538 C 388.071912 512.299307 388.071912 514.584866 387.817961 516.921215 C 387.208479 526.266613 384.110276 533.935934 378.370983 539.929178 C 372.682481 545.922422 365.267111 549.223785 356.226454 549.782478 C 346.881057 550.34117 338.957785 548.00482 332.558219 542.722639 C 326.107863 537.491248 322.146227 530.228249 320.673312 520.882851 C 320.063829 517.022796 319.606717 513.213531 319.149605 509.404265 C 318.743284 505.64579 318.641703 501.836525 318.946445 498.07805 C 319.505137 413.258409 320.419361 328.692719 321.638325 244.482561 C 321.638325 232.191331 324.888898 222.490402 331.491625 215.328984 C 338.043561 208.116775 346.728686 204.967782 357.496209 205.932796 C 361.356265 206.186747 365.01316 207.100971 368.517684 208.573887 C 372.022208 209.996012 375.374361 211.87525 378.574144 214.160809 C 380.961284 215.684515 383.196053 216.751109 385.329241 217.462172 C 387.56401 218.173235 390.255891 218.274816 393.455674 217.716123 C 411.029085 215.684515 427.688272 216.598739 443.484025 220.357214 C 459.279778 224.166479 474.212098 231.480269 488.280985 242.349372 C 501.384858 252.558203 511.94922 265.154174 519.872492 280.238864 C 527.795764 295.323555 531.96056 311.271679 532.366882 328.134027 C 532.823994 344.894794 528.862358 361.604771 520.481974 378.314749 C 512.152381 394.973935 498.489816 409.855465 479.49428 423.010128 C 452.575472 441.700923 421.847398 451.046321 387.360849 451.046321 Z M 387.360849 386.13644 C 395.893604 388.218838 404.93426 388.168048 414.584399 385.933279 C 424.234538 383.7493 432.868872 379.787664 440.588983 374.149952 C 448.359885 368.461449 454.454709 361.046079 458.822667 352.005423 C 463.241414 342.913976 464.409589 332.654355 462.327191 321.277349 C 460.905065 312.490644 457.959233 305.380016 453.540485 299.945464 C 449.223318 294.510912 444.093507 290.244535 438.252634 287.197122 C 432.411761 284.14971 426.164565 282.321263 419.612629 281.71178 C 413.060693 281.153088 406.661127 281.305459 400.566303 282.168892 C 394.97938 283.083116 391.373276 284.505242 389.747989 286.435269 C 388.173493 288.314507 387.51322 292.174562 387.817961 298.015436 C 388.376654 313.811189 388.427444 329.048251 388.021122 343.8282 C 387.56401 358.608149 387.360849 372.727826 387.360849 386.13644 Z M 639.178681 384.003251 C 640.296066 391.317041 643.546639 397.208704 648.82882 401.779823 C 654.111001 406.300151 660.307406 409.449144 667.418035 411.226801 C 674.630244 412.902878 682.197984 413.359989 690.019676 412.496556 C 697.942947 411.633122 705.409107 409.144402 712.418156 404.979606 C 717.395596 402.084564 722.373036 399.951375 727.299685 398.68162 C 732.327916 397.310285 737.711677 397.411865 743.603341 398.884781 C 749.748956 400.611648 754.777186 403.4559 758.688031 407.468326 C 762.598877 411.379171 765.341548 415.848709 766.916045 420.87694 C 768.592121 425.803589 768.744492 430.9334 767.474737 436.367952 C 766.204982 441.802504 763.30994 446.830734 758.891192 451.503433 C 752.491627 458.25853 745.228627 463.642291 737.152985 467.553137 C 729.178923 471.463983 720.493798 474.308234 711.1484 476.136682 C 687.988067 480.453849 667.164084 480.047527 648.574869 474.816136 C 630.036445 469.533955 614.189901 460.84883 601.136818 448.709971 C 588.134526 436.571113 578.179646 421.943534 571.170598 404.878025 C 564.16155 387.761727 560.657026 369.528043 560.657026 350.176975 C 560.657026 331.48618 563.399697 313.86198 568.935829 297.355163 C 574.471961 280.797557 582.446023 266.373139 592.807225 254.081909 C 603.219217 241.84147 615.815187 231.88659 630.595137 224.31885 C 645.375086 216.700319 661.983483 212.281571 680.420327 211.164187 C 701.447471 209.945222 719.122463 213.297376 733.39451 221.220647 C 747.768138 229.143919 758.586451 239.454331 765.84945 252.202672 C 773.21403 264.900223 777.124876 278.918319 777.531197 294.256961 C 777.937519 309.595602 775.042477 323.91844 768.744492 337.123893 C 762.446507 350.227766 752.694787 361.24924 739.387754 370.188316 C 726.131511 379.025811 709.523114 383.64772 689.613354 384.003251 C 681.690082 384.307993 673.61444 384.358783 665.386427 384.206412 C 657.259994 384.104832 648.524079 384.003251 639.178681 384.003251 Z M 634.759934 318.128357 C 641.768982 318.737839 648.625659 319.194951 655.329966 319.550482 C 662.135854 319.804433 668.890951 319.956804 675.595258 319.956804 C 686.718312 319.956804 695.352647 317.620455 701.498262 312.896966 C 707.643876 308.173477 711.04682 303.094456 711.757883 297.609114 C 712.468946 292.022192 710.488128 286.892381 705.764639 282.270473 C 701.14273 277.546984 693.57499 275.210634 683.061418 275.210634 C 677.525285 275.210634 672.090734 276.378809 666.808552 278.715158 C 661.526371 281.000718 656.752092 284.14971 652.536505 288.162136 C 648.320918 292.072982 644.664023 296.694891 641.515031 301.977072 C 638.467618 307.208463 636.182059 312.592224 634.759934 318.128357 Z M 949.252877 338.79997 C 957.785631 347.586675 965.962854 356.37338 973.784546 365.160086 C 981.707818 373.896001 989.78346 382.479545 998.011473 390.961509 C 999.433599 392.485215 1000.804934 393.958131 1002.074689 395.481838 C 1003.446025 396.903963 1004.868151 398.326089 1006.341067 399.748215 C 1012.486681 406.452522 1015.991205 413.359989 1016.854639 420.419828 C 1017.718072 427.428876 1015.838835 434.133183 1011.166136 440.583539 C 1006.747388 446.983104 1000.601774 451.300272 992.627711 453.535041 C 984.80602 455.71902 977.23828 455.211118 969.92449 451.909754 C 962.864652 448.709971 956.617457 444.138853 951.081325 438.29798 C 944.021486 431.288931 937.063228 424.178303 930.206551 416.915304 C 923.349873 409.550724 916.239245 402.084564 908.925455 394.516824 C 907.452539 395.938949 906.233574 397.462655 905.16698 399.087942 C 904.151176 400.662438 902.932211 402.236935 901.510085 403.709851 C 896.532645 410.718899 891.504415 417.829527 886.526975 425.041736 C 881.600325 432.152365 876.622885 439.110623 871.645445 445.81493 C 868.140921 450.79237 864.026915 454.703215 859.303426 457.496677 C 854.681517 460.239348 849.297756 461.966215 843.152141 462.524907 C 836.143093 463.083599 829.845107 462.067795 824.308975 459.426704 C 818.722053 456.785614 814.201725 452.519237 810.6972 446.678363 C 807.192676 440.228007 805.872131 434.082393 806.735565 428.241519 C 807.598998 422.400646 810.087718 416.508982 814.252515 410.668109 C 822.074206 399.595844 829.946688 388.52358 837.768379 377.349735 C 845.742441 366.22668 853.513342 355.154415 861.131873 344.082151 C 861.690565 343.218718 862.350838 342.304494 863.061901 341.28869 C 863.874544 340.222095 864.534817 339.257082 865.093509 338.393648 C 860.116069 329.911684 855.189419 321.5313 850.31356 313.354078 C 845.53928 305.126064 840.663421 296.948842 835.635191 288.822409 C 834.213065 286.181318 832.841729 283.591018 831.470394 281.102298 C 830.200639 278.613578 828.778513 275.870907 827.305597 272.975865 C 823.242381 263.884419 822.531318 255.300874 825.172409 247.123651 C 827.813499 238.946429 833.349631 232.800814 841.882386 228.737598 C 850.262769 224.31885 858.897104 223.455416 867.683809 226.248878 C 876.470515 229.042339 883.327192 234.680051 888.355422 243.162016 C 890.996513 247.529973 893.434443 251.999511 895.720002 256.570629 C 898.107142 261.090958 900.443491 265.509705 902.77984 269.979243 C 903.643274 271.401369 904.608288 272.925075 905.573302 274.550362 C 906.639896 276.124858 907.909651 278.105676 909.331777 280.442025 C 911.414175 278.105676 913.293413 275.921697 915.02028 273.940879 C 916.797937 271.858481 918.423223 269.776082 919.946929 267.693684 C 924.010146 262.767034 928.022572 257.840384 931.933418 252.812154 C 935.945844 247.834714 939.95827 242.857274 944.021486 237.930624 C 951.335276 229.143919 960.375932 224.623591 971.245036 224.31885 C 985.313922 224.31885 995.522753 229.854982 1001.973109 240.927247 C 1005.477633 246.76812 1006.899759 252.659784 1006.239486 258.500657 C 1005.680794 264.341531 1003.344445 270.080824 999.281228 275.616956 C 987.853432 290.549276 975.714574 305.786337 962.864652 321.277349 C 960.528302 323.91844 958.293534 326.661111 956.261925 329.606943 C 954.230317 332.552775 951.944758 335.600187 949.252877 338.79997 Z M 1276.544952 301.977072 C 1276.240211 313.049336 1276.138631 325.188195 1276.138631 338.393648 C 1276.138631 351.548311 1276.138631 364.906135 1276.138631 378.5687 C 1276.138631 392.129684 1276.138631 405.589088 1276.138631 418.946912 C 1276.138631 432.203155 1275.98626 444.392804 1275.681519 455.465069 C 1275.681519 470.092647 1271.923044 481.571233 1264.456884 489.951617 C 1256.990724 498.23042 1247.746907 501.480993 1236.573062 499.804917 C 1229.005321 498.281211 1222.605756 494.167204 1217.323574 487.462897 C 1212.041393 480.75859 1208.84161 472.581367 1207.673436 462.931229 C 1207.419485 460.84883 1207.267114 458.918802 1207.267114 457.039565 C 1207.267114 455.109537 1207.267114 452.976349 1207.267114 450.639999 C 1207.521065 405.843039 1208.384498 361.401611 1209.806624 317.315713 C 1211.33033 273.077446 1214.123791 228.788388 1218.187008 184.397749 C 1219.050441 172.969953 1222.402595 164.234038 1228.243468 158.240794 C 1234.084342 152.24755 1240.788649 148.844607 1248.356389 147.981173 C 1256.02571 147.11774 1263.695031 148.895397 1271.415142 153.314144 C 1279.186043 157.682102 1285.585609 164.69115 1290.563049 174.341289 C 1296.403922 185.362763 1302.041635 197.450832 1307.374606 210.503914 C 1312.809158 223.506207 1318.2945 236.965611 1323.881422 250.882127 C 1329.468345 264.747852 1334.953687 278.715158 1340.388239 292.784045 C 1345.772 306.751351 1351.460503 320.159965 1357.301377 333.009887 C 1357.860069 322.547104 1358.571132 310.865358 1359.434565 298.015436 C 1360.297999 285.165514 1361.313803 272.010851 1362.431187 258.602238 C 1363.650152 245.092043 1364.767537 231.93738 1365.732551 219.087459 C 1366.799145 206.186747 1367.916529 194.60658 1369.084704 184.397749 C 1369.948138 176.474478 1371.725795 169.56701 1374.519256 163.726136 C 1377.312717 157.885263 1380.817241 153.212564 1385.032828 149.70804 C 1389.299205 146.203516 1394.073484 144.070327 1399.355666 143.359264 C 1404.637847 142.648202 1410.072399 143.613216 1415.557741 146.254306 C 1422.312838 149.454089 1427.595019 154.380739 1431.404284 160.932675 C 1435.16276 167.484611 1437.092787 175.458673 1437.092787 184.804071 C 1436.788046 192.371811 1436.381724 199.837971 1435.772242 207.202551 C 1435.21355 214.46555 1434.604067 221.93171 1433.994585 229.601031 C 1431.709026 261.70044 1429.423467 293.647478 1427.239488 325.442146 C 1425.004719 357.135233 1422.71916 388.929901 1420.38281 420.87694 C 1419.519377 434.539504 1417.74172 447.694167 1415.100629 460.239348 C 1411.037413 478.980933 1401.539644 489.951617 1386.658115 493.1514 C 1371.421053 496.401973 1359.434565 490.002407 1350.64786 473.851122 C 1348.006769 469.229214 1345.67042 464.353354 1343.588022 459.172753 C 1341.607204 454.042943 1339.423225 449.014713 1337.036085 444.088063 C 1332.414177 433.828442 1327.741478 422.248275 1323.017989 409.398353 C 1318.39608 396.548432 1313.571011 383.54614 1308.542781 370.391477 C 1303.565341 357.186024 1298.33395 344.590053 1292.950188 332.603565 C 1287.566427 320.617077 1282.131875 310.408246 1276.544952 301.977072 Z M 1461.218134 315.995168 C 1460.913393 311.017728 1461.624456 306.345029 1463.351323 301.977072 C 1465.12898 297.558324 1467.56691 293.799849 1470.614322 290.752437 C 1473.712524 287.654234 1477.267839 285.216304 1481.331055 283.337067 C 1485.445062 281.407039 1489.863809 280.442025 1494.485718 280.442025 C 1504.186647 280.188074 1512.36387 283.235487 1518.915806 289.685842 C 1525.467742 296.085408 1528.921476 304.415002 1529.175427 314.623833 C 1529.175427 322.547104 1529.277008 331.943292 1529.429378 342.761606 C 1529.530959 353.579919 1529.632539 364.652184 1529.632539 376.07998 C 1529.632539 387.507775 1529.632539 398.58004 1529.632539 409.296773 C 1529.632539 419.911926 1529.480169 429.155743 1529.175427 437.028224 C 1529.175427 442.869098 1527.956462 448.151279 1525.467742 452.874768 C 1522.928232 457.496677 1519.728449 461.356732 1515.817604 464.454935 C 1511.906758 467.502347 1507.33564 469.584745 1502.205829 470.65134 C 1497.076018 471.667144 1491.743047 471.413193 1486.257705 469.889487 C 1478.639174 467.908669 1472.59514 464.251774 1468.176392 458.969593 C 1463.808435 453.687411 1461.472085 447.287846 1461.218134 439.720105 C 1461.218134 419.200863 1461.268924 402.186144 1461.421295 388.62516 C 1461.573666 374.962595 1461.624456 363.63638 1461.624456 354.544933 C 1461.624456 345.504277 1461.624456 338.088907 1461.624456 332.400404 C 1461.624456 326.661111 1461.472085 321.226559 1461.218134 315.995168 Z M 1501.545556 253.269266 C 1491.641467 253.269266 1483.311873 250.171064 1476.505986 244.025449 C 1469.801679 237.879834 1466.297155 230.312094 1465.992413 221.220647 C 1465.992413 212.179991 1469.242987 204.56146 1475.642552 198.415846 C 1482.092908 192.270231 1490.01618 189.222819 1499.412368 189.222819 C 1509.062507 189.222819 1517.29052 192.371811 1524.147197 198.619007 C 1531.003875 204.916992 1534.609979 212.433942 1534.86393 221.220647 C 1535.168671 230.312094 1532.019679 237.879834 1525.467742 244.025449 C 1518.865016 250.171064 1510.941744 253.269266 1501.545556 253.269266 Z M 1568.233094 299.285191 C 1571.991569 283.794179 1578.492715 270.131614 1587.736533 258.297496 C 1596.98035 246.412589 1607.849453 236.71166 1620.293053 229.143919 C 1632.685863 221.525389 1646.196058 216.141627 1660.772846 213.094215 C 1675.400425 209.996012 1690.028004 209.640481 1704.655582 212.02762 C 1706.179289 212.281571 1707.702995 212.535522 1709.277491 212.637103 C 1710.902778 212.789473 1712.426484 213.145005 1713.848609 213.754487 C 1715.016784 212.02762 1716.032588 210.351544 1716.845231 208.827838 C 1717.810245 207.151761 1718.673679 205.577264 1719.537112 204.104349 C 1728.019076 191.508378 1740.056355 186.429358 1755.547367 188.765707 C 1765.451457 191.152847 1772.663666 195.673175 1777.183994 202.377482 C 1781.755112 209.081789 1784.497783 216.85269 1785.412007 225.639395 C 1788.61179 259.516461 1791.25288 293.291947 1793.233698 326.915062 C 1795.316097 360.538177 1796.636642 394.466033 1797.195334 428.647841 C 1797.195334 439.821686 1796.23032 450.538419 1794.300293 460.79804 C 1792.421055 471.006871 1789.373643 480.504639 1785.107266 489.291344 C 1780.891679 497.976469 1775.355546 505.64579 1768.498869 512.197726 C 1761.642191 518.851243 1753.261808 524.031844 1743.306928 527.841109 C 1732.488614 532.259857 1720.349755 534.545416 1706.991932 534.697787 C 1693.735689 534.850158 1680.276284 533.783563 1666.66451 531.599584 C 1653.052735 529.364815 1640.101233 526.215823 1627.657633 522.051026 C 1615.214033 517.98781 1604.649671 513.772223 1595.862965 509.404265 C 1588.295225 505.341049 1583.013044 499.855707 1580.118002 492.948239 C 1577.17217 486.091562 1576.918219 478.980933 1579.254569 471.717934 C 1581.844869 464.099403 1586.619148 458.156949 1593.577406 453.941362 C 1600.688035 449.674985 1608.154195 448.25286 1616.077467 449.776566 C 1619.581991 450.335258 1623.086515 451.249482 1626.591039 452.468447 C 1630.095563 453.585831 1633.600087 454.754006 1637.104611 455.87139 C 1647.668973 459.071173 1658.334916 462.626487 1669.10244 466.486543 C 1679.971543 470.245018 1689.774053 472.175046 1698.560758 472.175046 C 1707.347463 472.175046 1714.458092 469.229214 1719.994224 463.38834 C 1725.530356 457.496677 1728.323818 446.678363 1728.323818 430.9334 C 1728.323818 423.264079 1728.171447 415.8995 1727.917496 408.738081 C 1727.612755 401.627452 1727.612755 394.212082 1727.917496 386.593552 C 1721.213189 394.770775 1713.594658 401.982984 1705.112694 408.128598 C 1696.57994 414.223423 1687.793235 419.048492 1678.752578 422.553016 C 1669.661132 426.05754 1660.417315 428.139939 1650.919546 428.800211 C 1641.421778 429.358904 1632.127171 428.190729 1623.035724 425.244897 C 1610.185803 420.826149 1599.62144 414.020262 1591.241057 404.776445 C 1582.962253 395.583418 1576.613478 385.069846 1572.19473 373.184938 C 1567.826773 361.35082 1565.338053 348.90722 1564.67778 335.904928 C 1564.119088 322.953426 1565.287262 310.712987 1568.233094 299.285191 Z M 1678.295466 332.197243 C 1681.241298 326.30558 1683.730018 320.464706 1685.812417 314.623833 C 1687.894815 308.782959 1689.774053 302.738925 1691.50092 296.6441 C 1692.719884 293.393527 1693.583318 290.346115 1694.14201 287.400283 C 1694.751493 284.505242 1694.649912 282.118102 1693.837269 280.238864 C 1693.126206 278.308837 1691.65329 276.937501 1689.469311 276.074068 C 1687.285333 275.210634 1684.08555 275.058264 1679.717592 275.616956 C 1667.731104 277.039082 1657.776224 281.50862 1649.802162 289.02557 C 1641.87889 296.44094 1636.647499 306.141869 1634.107989 318.128357 C 1632.025591 330.165635 1632.228751 339.612613 1634.717471 346.520081 C 1637.206191 353.376758 1640.863086 357.439975 1645.637365 358.76052 C 1650.513225 360.030275 1655.947777 358.506569 1661.941021 354.138611 C 1667.934265 349.770654 1673.368817 342.456864 1678.295466 332.197243 Z M 1897.658358 306.345029 C 1914.368335 291.4635 1931.687795 282.473633 1949.616737 279.375431 C 1967.596469 276.328019 1984.204866 278.207256 1999.391137 285.063934 C 2014.628198 291.920611 2027.173378 303.094456 2037.077468 318.585469 C 2047.083138 334.076481 2052.36532 352.818066 2052.974802 374.810224 C 2053.228753 382.936657 2053.381124 391.06309 2053.381124 399.087942 C 2053.381124 407.163584 2053.381124 415.290017 2053.381124 423.41645 C 2053.381124 429.562064 2053.076382 435.504518 2052.51769 441.193021 C 2051.958998 446.932314 2050.536872 452.112915 2048.352893 456.836404 C 2046.118124 461.458313 2043.070712 465.318368 2039.159866 468.416571 C 2035.198231 471.463983 2030.01763 473.29243 2023.618064 473.851122 C 2016.253484 474.460605 2009.955499 473.444801 2004.673318 470.8545 C 1999.441927 468.21341 1995.22634 464.658095 1992.026557 460.137767 C 1988.775984 455.566649 1986.439635 450.436838 1984.966719 444.748335 C 1983.493803 439.009042 1983.087481 433.37133 1983.646173 427.835198 C 1983.950915 417.626367 1984.509607 407.468326 1985.37304 397.411865 C 1986.287264 387.253824 1984.966719 377.654476 1981.411404 368.61382 C 1977.348188 356.881282 1970.796252 349.669073 1961.704805 346.977193 C 1952.613359 344.183731 1943.775863 345.707438 1935.141529 351.548311 C 1926.557984 357.338394 1919.345775 367.394855 1913.504902 381.768482 C 1907.664028 396.09132 1905.886371 414.680535 1908.17193 437.434546 C 1908.781413 443.884902 1907.816399 449.725775 1905.175308 455.007957 C 1902.534217 460.290138 1898.978903 464.759676 1894.560155 468.416571 C 1890.192198 472.022675 1885.316338 474.612975 1879.881786 476.136682 C 1874.447235 477.558807 1869.266634 477.660388 1864.339984 476.543003 C 1857.381726 474.460605 1851.642433 470.346598 1847.223685 464.200984 C 1842.855728 458.106159 1840.367008 451.351062 1839.706735 444.088063 C 1838.589351 433.218959 1837.725917 422.502226 1837.167225 411.836283 C 1836.557742 401.17034 1835.84668 390.555188 1834.881666 380.041615 C 1833.45954 360.131855 1831.885044 340.374466 1830.107386 320.820238 C 1828.38052 301.215219 1826.755233 281.457829 1825.282317 261.59886 C 1824.672835 253.370847 1824.063352 245.295204 1823.352289 237.270352 C 1822.641226 229.2455 1822.133324 221.068277 1821.828583 212.891054 C 1821.219101 206.745439 1821.930164 201.056936 1823.961772 195.825545 C 1826.04417 190.543364 1828.990002 186.023036 1832.748477 182.264561 C 1836.557742 178.404505 1841.078071 175.661834 1846.360252 174.087338 C 1851.642433 172.462051 1857.381726 172.05573 1863.476551 172.919163 C 1871.044291 174.442869 1877.240696 177.947393 1882.014975 183.534316 C 1886.890835 189.121238 1889.633506 196.079496 1890.293778 204.51067 C 1890.852471 212.992634 1891.360373 221.423808 1891.766694 229.804192 C 1892.223806 238.133785 1892.680918 246.514169 1893.2904 254.945343 C 1893.849093 263.173356 1894.560155 271.452159 1895.423589 279.832543 C 1896.337813 288.162136 1897.099666 296.999632 1897.658358 306.345029 Z M 2155.571014 333.009887 C 2150.390413 333.009887 2145.463764 333.162257 2140.892645 333.365418 C 2136.423107 333.517789 2131.801199 333.416208 2127.07771 333.009887 C 2123.877927 332.755935 2120.728934 332.451194 2117.681522 332.197243 C 2114.58332 331.892502 2111.586697 331.33381 2108.691656 330.470376 C 2101.022335 327.829286 2095.384622 323.562909 2091.778518 317.722035 C 2088.121623 311.881162 2086.597917 305.278435 2087.156609 298.015436 C 2088.070833 290.092164 2090.711924 284.09892 2095.079881 280.035704 C 2099.447839 275.870907 2104.67923 273.026656 2110.824844 271.452159 C 2116.970459 269.826873 2123.471605 268.912649 2130.328283 268.760278 C 2137.235751 268.658698 2143.482946 268.303167 2149.069868 267.693684 C 2150.745945 267.693684 2152.574392 267.642894 2154.50442 267.490523 C 2156.434448 267.338153 2158.567636 267.134992 2160.853195 266.830251 C 2163.189545 245.803106 2165.525894 225.283864 2167.913034 205.272523 C 2170.249383 185.210393 2172.890474 165.199052 2175.836306 145.289292 C 2176.699739 139.80395 2178.426606 134.8773 2181.067697 130.509343 C 2183.708787 126.090595 2187.060941 122.535281 2191.124157 119.89419 C 2195.187373 117.2531 2199.656911 115.577023 2204.532771 114.86596 C 2209.35784 114.104107 2214.436861 114.459638 2219.617462 115.932554 C 2227.540733 118.319694 2233.686348 122.484491 2238.054306 128.477735 C 2242.473053 134.470979 2244.19992 142.038719 2243.285697 151.079376 C 2241.863571 170.633604 2239.831963 189.781511 2237.190872 208.472306 C 2234.549782 227.213891 2232.213432 246.057057 2230.232614 265.154174 C 2234.295831 265.154174 2238.003515 265.052593 2241.355669 264.900223 C 2244.707822 264.697062 2248.009186 264.798642 2251.208968 265.154174 C 2256.49115 265.408125 2261.671751 266.119188 2266.750771 267.287362 C 2271.880582 268.404747 2276.40091 270.233194 2280.362546 272.721914 C 2284.324182 275.261424 2287.574755 278.511998 2290.012684 282.473633 C 2292.501404 286.435269 2293.92353 291.311129 2294.279062 297.152002 C 2294.533013 303.856309 2292.704565 309.951134 2288.692139 315.385686 C 2284.781293 320.718657 2279.448322 324.578713 2272.744015 326.915062 C 2269.798183 328.083237 2266.903142 328.84509 2263.95731 329.200621 C 2261.011478 329.454572 2258.116436 329.759313 2255.170604 330.013264 C 2250.447115 330.318006 2245.672836 330.368796 2240.847767 330.267215 C 2236.022697 330.114845 2230.892887 330.013264 2225.407545 330.013264 C 2224.747272 346.36771 2223.629888 363.484009 2222.004601 381.311371 C 2220.430105 399.189522 2219.769832 420.267457 2220.074573 444.545175 C 2220.074573 453.027139 2218.601657 460.391718 2215.655826 466.689704 C 2212.760784 472.987689 2207.478603 477.558807 2199.910862 480.504639 C 2192.901814 483.14573 2186.451458 483.806002 2180.407424 482.536247 C 2174.41418 481.164912 2169.284369 478.523821 2165.017992 474.612975 C 2160.802405 470.600549 2157.450252 465.623109 2154.961532 459.629865 C 2152.422022 453.636621 2151.203057 447.541797 2151.203057 441.396182 C 2151.457008 418.946912 2152.11728 399.240313 2153.133084 382.276384 C 2154.199679 365.312456 2155.012322 348.90722 2155.571014 333.009887 Z M 2710.098462 405.843039 C 2703.394155 419.048492 2695.572464 431.03498 2686.633388 441.751713 C 2677.694312 452.366866 2667.28232 461.204362 2655.245042 468.21341 C 2644.680679 474.308234 2633.354464 478.371451 2621.215605 480.301478 C 2609.076746 482.129926 2596.937888 481.875975 2584.799029 479.438045 C 2572.66017 476.949325 2560.876843 472.378207 2549.449047 465.82627 C 2538.122831 459.172753 2527.914 450.639999 2518.822554 440.126427 C 2503.331542 422.299065 2492.91955 402.490886 2487.637368 380.701888 C 2482.355187 358.912891 2480.069628 335.752558 2480.67911 311.170099 C 2480.983852 289.533472 2484.132844 268.353957 2490.126088 247.580763 C 2496.119333 226.80757 2504.601297 208.218355 2515.52119 191.863909 C 2526.491875 175.458673 2539.951279 162.10085 2555.899403 151.739648 C 2571.796737 141.276866 2590.132 135.791524 2610.905194 135.232832 C 2632.846562 134.369398 2651.537357 138.432615 2667.028369 147.3209 C 2682.519381 156.259976 2695.267723 168.246464 2705.171813 183.331155 C 2715.177483 198.365056 2722.491272 215.532144 2727.113181 234.832422 C 2731.83667 254.081909 2734.274599 273.940879 2734.42697 294.256961 C 2734.52855 314.623833 2732.496942 334.482802 2728.179775 353.935451 C 2723.964188 373.337309 2717.970944 390.656768 2710.098462 405.843039 Z M 2619.691899 210.757865 C 2611.768627 210.097593 2603.997726 211.773669 2596.379195 215.786096 C 2588.811455 219.696941 2582.107148 225.487024 2576.317065 233.105555 C 2572.203058 238.895638 2568.444583 246.66654 2565.09243 256.367469 C 2561.740276 266.017607 2559.149976 276.58197 2557.372319 288.162136 C 2555.645452 299.640722 2554.883599 311.627211 2555.035969 324.121601 C 2555.18834 336.565201 2556.407305 348.196158 2558.794444 358.963681 C 2562.552919 376.537091 2568.647744 389.691754 2577.078918 398.47846 C 2585.560882 407.265165 2594.652328 411.836283 2604.302467 412.293395 C 2614.003396 412.699717 2623.450374 408.992032 2632.643401 401.17034 C 2641.887218 393.247069 2649.099427 381.362161 2654.432399 365.617198 C 2656.971909 357.643135 2659.155888 348.450109 2660.933545 337.936536 C 2662.711202 327.372174 2663.828586 316.50307 2664.234908 305.278435 C 2664.69202 294.00301 2664.234908 282.879955 2662.863573 271.909271 C 2661.593817 260.887797 2659.257468 251.034497 2655.905315 242.349372 C 2652.553161 233.562667 2647.880462 226.299668 2641.887218 220.611165 C 2635.893974 214.871872 2628.478604 211.570509 2619.691899 210.757865 Z M 2850.838118 470.8545 C 2834.483672 466.740494 2820.668737 459.985397 2809.393311 450.639999 C 2798.168676 441.294602 2789.28039 430.222337 2782.626874 417.524786 C 2776.074937 404.827235 2771.402239 391.0123 2768.608777 376.07998 C 2765.815316 361.14766 2764.647141 346.012179 2765.053463 330.673537 C 2765.561365 315.334895 2767.339022 300.351785 2770.437225 285.724207 C 2773.484637 271.045838 2777.344693 257.586433 2781.966601 245.345994 C 2784.607692 238.032205 2788.112216 231.988171 2792.480173 227.213891 C 2796.898921 222.388822 2801.72399 218.681137 2806.955381 216.192417 C 2812.237563 213.703697 2817.570534 212.383152 2823.005086 212.230781 C 2828.439638 212.078411 2833.518658 213.348166 2838.191357 215.989256 C 2841.44193 217.716123 2844.387762 220.001682 2847.079643 222.947514 C 2849.873104 225.893346 2852.107873 229.499451 2853.733159 233.765828 C 2855.358446 237.981415 2856.069509 242.704904 2855.866348 247.987085 C 2855.713977 253.269266 2854.393432 259.008559 2851.803132 265.154174 C 2849.466782 270.334775 2847.384384 276.68355 2845.606727 284.2005 C 2843.87986 291.61587 2842.406944 299.589932 2841.187979 308.071896 C 2840.070595 316.55386 2839.511902 325.289775 2839.511902 334.228851 C 2839.511902 343.117137 2840.222965 351.649891 2841.645091 359.827114 C 2844.286181 375.318127 2849.619153 386.796713 2857.593215 394.313663 C 2865.668857 401.729033 2874.353982 405.284347 2883.69938 404.979606 C 2893.146358 404.725655 2901.983853 400.814809 2910.262657 393.247069 C 2918.64304 385.577748 2924.128382 374.607064 2926.769473 360.233436 C 2928.191599 352.970437 2928.851871 344.691633 2928.699501 335.498607 C 2928.54713 326.30558 2928.039228 317.315713 2927.226585 308.529008 C 2926.363151 299.742303 2925.296557 291.4635 2924.077592 283.794179 C 2922.960208 275.972487 2922.096774 269.776082 2921.538082 265.154174 C 2919.455684 251.085287 2921.334921 239.809862 2927.226585 231.277108 C 2933.067458 222.795144 2941.549422 217.970074 2952.672477 216.85269 C 2962.627357 215.989256 2971.363272 218.681137 2978.931012 224.979122 C 2986.549543 231.277108 2991.425403 239.911442 2993.507801 250.983707 C 2996.047311 265.052593 2998.23129 280.188074 3000.008947 296.288569 C 3001.837395 312.389064 3002.548457 328.286398 3002.192926 344.082151 C 3001.583444 363.63638 2997.469437 382.327175 2989.850906 400.205327 C 2982.283166 418.032688 2971.769594 433.117379 2958.259399 445.357818 C 2944.850786 457.649047 2929.004242 466.384962 2910.719768 471.514773 C 2892.435295 476.593793 2872.474745 476.339842 2850.838118 470.8545 Z M 3103.062271 333.009887 C 3097.88167 333.009887 3093.005811 333.162257 3088.434692 333.365418 C 3083.914364 333.517789 3079.292456 333.416208 3074.619757 333.009887 C 3071.369184 332.755935 3068.270981 332.451194 3065.172779 332.197243 C 3062.125367 331.892502 3059.128745 331.33381 3056.182913 330.470376 C 3048.564382 327.829286 3042.875879 323.562909 3039.269775 317.722035 C 3035.61288 311.881162 3034.089174 305.278435 3034.647866 298.015436 C 3035.56209 290.092164 3038.203181 284.09892 3042.571138 280.035704 C 3046.939096 275.870907 3052.170487 273.026656 3058.316101 271.452159 C 3064.461716 269.826873 3070.962862 268.912649 3077.81954 268.760278 C 3084.727008 268.658698 3090.974203 268.303167 3096.561125 267.693684 C 3098.287992 267.693684 3100.065649 267.642894 3101.995677 267.490523 C 3103.925705 267.338153 3106.058893 267.134992 3108.344452 266.830251 C 3110.680802 245.803106 3113.067941 225.283864 3115.404291 205.272523 C 3117.74064 185.210393 3120.381731 165.199052 3123.327563 145.289292 C 3124.190996 139.80395 3125.917863 134.8773 3128.558954 130.509343 C 3131.200044 126.090595 3134.552198 122.535281 3138.666204 119.89419 C 3142.729421 117.2531 3147.198959 115.577023 3152.024028 114.86596 C 3156.899888 114.104107 3161.928118 114.459638 3167.108719 115.932554 C 3175.03199 118.319694 3181.177605 122.484491 3185.545563 128.477735 C 3189.96431 134.470979 3191.741968 142.038719 3190.776954 151.079376 C 3189.354828 170.633604 3187.32322 189.781511 3184.682129 208.472306 C 3182.041039 227.213891 3179.755479 246.057057 3177.723871 265.154174 C 3181.787088 265.154174 3185.494772 265.052593 3188.846926 264.900223 C 3192.24987 264.697062 3195.500443 264.798642 3198.700226 265.154174 C 3203.982407 265.408125 3209.163008 266.119188 3214.242028 267.287362 C 3219.371839 268.404747 3223.942957 270.233194 3227.853803 272.721914 C 3231.866229 275.261424 3235.066012 278.511998 3237.503941 282.473633 C 3239.992661 286.435269 3241.414787 291.311129 3241.770319 297.152002 C 3242.07506 303.856309 3240.195822 309.951134 3236.183396 315.385686 C 3232.27255 320.718657 3226.939579 324.578713 3220.235272 326.915062 C 3217.34023 328.083237 3214.394399 328.84509 3211.448567 329.200621 C 3208.553525 329.454572 3205.607693 329.759313 3202.661861 330.013264 C 3197.989163 330.318006 3193.214883 330.368796 3188.339024 330.267215 C 3183.564745 330.114845 3178.434934 330.013264 3172.898802 330.013264 C 3172.289319 346.36771 3171.121145 363.484009 3169.495858 381.311371 C 3167.921362 399.189522 3167.261089 420.267457 3167.56583 444.545175 C 3167.56583 453.027139 3166.092915 460.391718 3163.147083 466.689704 C 3160.252041 472.987689 3154.96986 477.558807 3147.402119 480.504639 C 3140.443861 483.14573 3133.942715 483.806002 3127.949471 482.536247 C 3121.956227 481.164912 3116.775626 478.523821 3112.509249 474.612975 C 3108.293662 470.600549 3104.941509 465.623109 3102.452789 459.629865 C 3099.964069 453.636621 3098.694314 447.541797 3098.694314 441.396182 C 3098.999055 418.946912 3099.608537 399.240313 3100.624341 382.276384 C 3101.690936 365.312456 3102.503579 348.90722 3103.062271 333.009887 Z M 3103.062271 333.009887 " stroke="#04009a" stroke-width="32.900024" stroke-opacity="1" stroke-miterlimit="4"/></g><g fill="#3edbf0" fill-opacity="1"><g transform="translate(7.714128, 30.920474)"><g><path d="M 13.96875 -7.625 C 12.664062 -7.757812 11.390625 -7.804688 10.140625 -7.765625 C 8.890625 -7.734375 7.625 -7.570312 6.34375 -7.28125 C 6.320312 -7.125 6.304688 -6.972656 6.296875 -6.828125 C 6.285156 -6.679688 6.28125 -6.53125 6.28125 -6.375 C 6.300781 -5.5625 6.328125 -4.753906 6.359375 -3.953125 C 6.390625 -3.160156 6.414062 -2.359375 6.4375 -1.546875 C 6.46875 -0.648438 6.175781 0.046875 5.5625 0.546875 C 4.957031 1.054688 4.21875 1.234375 3.34375 1.078125 C 2.78125 0.984375 2.300781 0.734375 1.90625 0.328125 C 1.507812 -0.0664062 1.28125 -0.582031 1.21875 -1.21875 C 1.164062 -1.726562 1.125 -2.257812 1.09375 -2.8125 C 1.0625 -3.363281 1.046875 -3.910156 1.046875 -4.453125 C 1.003906 -6.253906 0.992188 -8.046875 1.015625 -9.828125 C 1.035156 -11.617188 1.171875 -13.425781 1.421875 -15.25 C 1.554688 -16.28125 1.8125 -17.390625 2.1875 -18.578125 C 2.570312 -19.773438 3.0625 -20.90625 3.65625 -21.96875 C 4.25 -23.039062 4.957031 -23.992188 5.78125 -24.828125 C 6.601562 -25.660156 7.53125 -26.242188 8.5625 -26.578125 C 9.375 -26.847656 10.207031 -26.984375 11.0625 -26.984375 C 11.914062 -26.984375 12.738281 -26.84375 13.53125 -26.5625 C 14.332031 -26.28125 15.070312 -25.859375 15.75 -25.296875 C 16.425781 -24.734375 16.988281 -24.035156 17.4375 -23.203125 C 18.039062 -22.054688 18.476562 -20.878906 18.75 -19.671875 C 19.019531 -18.472656 19.191406 -17.234375 19.265625 -15.953125 C 19.378906 -13.640625 19.398438 -11.347656 19.328125 -9.078125 C 19.265625 -6.804688 19.175781 -4.519531 19.0625 -2.21875 C 18.988281 -0.78125 18.335938 0.113281 17.109375 0.46875 C 16.648438 0.601562 16.21875 0.628906 15.8125 0.546875 C 15.414062 0.472656 15.0625 0.316406 14.75 0.078125 C 14.445312 -0.148438 14.207031 -0.453125 14.03125 -0.828125 C 13.851562 -1.203125 13.765625 -1.613281 13.765625 -2.0625 C 13.785156 -2.800781 13.8125 -3.535156 13.84375 -4.265625 C 13.882812 -4.992188 13.925781 -5.734375 13.96875 -6.484375 Z M 14.03125 -12.78125 C 14.070312 -12.914062 14.09375 -13.039062 14.09375 -13.15625 C 14.03125 -14.238281 13.972656 -15.289062 13.921875 -16.3125 C 13.878906 -17.332031 13.703125 -18.328125 13.390625 -19.296875 C 13.035156 -20.347656 12.5625 -21.015625 11.96875 -21.296875 C 11.382812 -21.578125 10.769531 -21.539062 10.125 -21.1875 C 9.488281 -20.84375 8.878906 -20.222656 8.296875 -19.328125 C 7.710938 -18.429688 7.253906 -17.34375 6.921875 -16.0625 C 6.628906 -14.976562 6.484375 -13.804688 6.484375 -12.546875 C 7.765625 -12.585938 9.019531 -12.625 10.25 -12.65625 C 11.488281 -12.695312 12.75 -12.738281 14.03125 -12.78125 Z M 14.03125 -12.78125 "/></g></g></g><g fill="#3edbf0" fill-opacity="1"><g transform="translate(28.293739, 30.920474)"><g><path d="M 6.671875 0.9375 C 6.671875 1.125 6.679688 1.300781 6.703125 1.46875 C 6.734375 1.632812 6.738281 1.804688 6.71875 1.984375 C 6.664062 2.703125 6.421875 3.289062 5.984375 3.75 C 5.546875 4.21875 4.976562 4.472656 4.28125 4.515625 C 3.5625 4.566406 2.953125 4.390625 2.453125 3.984375 C 1.960938 3.578125 1.660156 3.015625 1.546875 2.296875 C 1.503906 2.003906 1.46875 1.710938 1.4375 1.421875 C 1.40625 1.128906 1.398438 0.835938 1.421875 0.546875 C 1.460938 -5.984375 1.53125 -12.484375 1.625 -18.953125 C 1.625 -19.898438 1.875 -20.648438 2.375 -21.203125 C 2.882812 -21.753906 3.554688 -21.992188 4.390625 -21.921875 C 4.679688 -21.898438 4.960938 -21.832031 5.234375 -21.71875 C 5.503906 -21.613281 5.757812 -21.46875 6 -21.28125 C 6.1875 -21.175781 6.363281 -21.09375 6.53125 -21.03125 C 6.695312 -20.976562 6.90625 -20.972656 7.15625 -21.015625 C 8.5 -21.171875 9.773438 -21.101562 10.984375 -20.8125 C 12.203125 -20.519531 13.351562 -19.957031 14.4375 -19.125 C 15.445312 -18.34375 16.253906 -17.367188 16.859375 -16.203125 C 17.472656 -15.046875 17.796875 -13.820312 17.828125 -12.53125 C 17.859375 -11.238281 17.550781 -9.953125 16.90625 -8.671875 C 16.269531 -7.390625 15.222656 -6.242188 13.765625 -5.234375 C 11.691406 -3.785156 9.328125 -3.0625 6.671875 -3.0625 Z M 6.671875 -8.0625 C 7.328125 -7.90625 8.023438 -7.910156 8.765625 -8.078125 C 9.515625 -8.242188 10.1875 -8.546875 10.78125 -8.984375 C 11.375 -9.421875 11.835938 -9.988281 12.171875 -10.6875 C 12.515625 -11.382812 12.609375 -12.175781 12.453125 -13.0625 C 12.335938 -13.726562 12.109375 -14.269531 11.765625 -14.6875 C 11.429688 -15.101562 11.039062 -15.429688 10.59375 -15.671875 C 10.144531 -15.910156 9.664062 -16.050781 9.15625 -16.09375 C 8.65625 -16.132812 8.164062 -16.125 7.6875 -16.0625 C 7.257812 -15.988281 6.984375 -15.878906 6.859375 -15.734375 C 6.734375 -15.585938 6.6875 -15.289062 6.71875 -14.84375 C 6.757812 -13.625 6.757812 -12.445312 6.71875 -11.3125 C 6.6875 -10.175781 6.671875 -9.09375 6.671875 -8.0625 Z M 6.671875 -8.0625 "/></g></g></g><g fill="#3edbf0" fill-opacity="1"><g transform="translate(47.321444, 30.920474)"><g><path d="M 7.015625 -8.234375 C 7.109375 -7.671875 7.351562 -7.210938 7.75 -6.859375 C 8.15625 -6.515625 8.632812 -6.273438 9.1875 -6.140625 C 9.738281 -6.003906 10.316406 -5.96875 10.921875 -6.03125 C 11.535156 -6.101562 12.113281 -6.296875 12.65625 -6.609375 C 13.03125 -6.835938 13.410156 -7 13.796875 -7.09375 C 14.179688 -7.195312 14.597656 -7.191406 15.046875 -7.078125 C 15.515625 -6.941406 15.898438 -6.722656 16.203125 -6.421875 C 16.515625 -6.117188 16.726562 -5.773438 16.84375 -5.390625 C 16.96875 -5.015625 16.976562 -4.617188 16.875 -4.203125 C 16.78125 -3.785156 16.5625 -3.394531 16.21875 -3.03125 C 15.726562 -2.519531 15.171875 -2.109375 14.546875 -1.796875 C 13.929688 -1.492188 13.265625 -1.273438 12.546875 -1.140625 C 10.773438 -0.804688 9.171875 -0.84375 7.734375 -1.25 C 6.304688 -1.65625 5.09375 -2.320312 4.09375 -3.25 C 3.09375 -4.1875 2.320312 -5.3125 1.78125 -6.625 C 1.25 -7.945312 0.984375 -9.347656 0.984375 -10.828125 C 0.984375 -12.265625 1.195312 -13.617188 1.625 -14.890625 C 2.050781 -16.160156 2.660156 -17.269531 3.453125 -18.21875 C 4.253906 -19.164062 5.222656 -19.929688 6.359375 -20.515625 C 7.492188 -21.097656 8.769531 -21.429688 10.1875 -21.515625 C 11.800781 -21.609375 13.160156 -21.347656 14.265625 -20.734375 C 15.367188 -20.128906 16.203125 -19.335938 16.765625 -18.359375 C 17.328125 -17.390625 17.625 -16.3125 17.65625 -15.125 C 17.6875 -13.945312 17.460938 -12.851562 16.984375 -11.84375 C 16.503906 -10.832031 15.75 -9.984375 14.71875 -9.296875 C 13.695312 -8.609375 12.421875 -8.253906 10.890625 -8.234375 C 10.285156 -8.210938 9.664062 -8.207031 9.03125 -8.21875 C 8.40625 -8.226562 7.734375 -8.234375 7.015625 -8.234375 Z M 6.671875 -13.296875 C 7.210938 -13.242188 7.742188 -13.207031 8.265625 -13.1875 C 8.785156 -13.164062 9.300781 -13.15625 9.8125 -13.15625 C 10.664062 -13.15625 11.328125 -13.332031 11.796875 -13.6875 C 12.273438 -14.050781 12.539062 -14.445312 12.59375 -14.875 C 12.65625 -15.300781 12.503906 -15.691406 12.140625 -16.046875 C 11.785156 -16.410156 11.203125 -16.59375 10.390625 -16.59375 C 9.960938 -16.59375 9.546875 -16.503906 9.140625 -16.328125 C 8.734375 -16.148438 8.367188 -15.90625 8.046875 -15.59375 C 7.722656 -15.289062 7.441406 -14.9375 7.203125 -14.53125 C 6.960938 -14.132812 6.785156 -13.722656 6.671875 -13.296875 Z M 6.671875 -13.296875 "/></g></g></g><g fill="#3edbf0" fill-opacity="1"><g transform="translate(66.180466, 30.920474)"><g><path d="M 12.015625 -11.703125 C 12.660156 -11.023438 13.285156 -10.347656 13.890625 -9.671875 C 14.503906 -9.003906 15.125 -8.34375 15.75 -7.6875 C 15.863281 -7.570312 15.96875 -7.457031 16.0625 -7.34375 C 16.164062 -7.238281 16.273438 -7.128906 16.390625 -7.015625 C 16.867188 -6.492188 17.140625 -5.960938 17.203125 -5.421875 C 17.273438 -4.890625 17.128906 -4.375 16.765625 -3.875 C 16.429688 -3.382812 15.957031 -3.050781 15.34375 -2.875 C 14.738281 -2.707031 14.15625 -2.75 13.59375 -3 C 13.050781 -3.25 12.566406 -3.597656 12.140625 -4.046875 C 11.597656 -4.585938 11.0625 -5.140625 10.53125 -5.703125 C 10.007812 -6.265625 9.46875 -6.835938 8.90625 -7.421875 C 8.789062 -7.304688 8.691406 -7.1875 8.609375 -7.0625 C 8.535156 -6.9375 8.441406 -6.820312 8.328125 -6.71875 C 7.953125 -6.175781 7.570312 -5.628906 7.1875 -5.078125 C 6.800781 -4.523438 6.414062 -3.988281 6.03125 -3.46875 C 5.769531 -3.09375 5.457031 -2.796875 5.09375 -2.578125 C 4.726562 -2.367188 4.3125 -2.238281 3.84375 -2.1875 C 3.300781 -2.144531 2.816406 -2.222656 2.390625 -2.421875 C 1.960938 -2.628906 1.613281 -2.957031 1.34375 -3.40625 C 1.070312 -3.90625 0.96875 -4.378906 1.03125 -4.828125 C 1.101562 -5.273438 1.300781 -5.722656 1.625 -6.171875 C 2.226562 -7.023438 2.832031 -7.878906 3.4375 -8.734375 C 4.050781 -9.585938 4.648438 -10.441406 5.234375 -11.296875 C 5.273438 -11.367188 5.320312 -11.441406 5.375 -11.515625 C 5.4375 -11.597656 5.488281 -11.671875 5.53125 -11.734375 C 5.144531 -12.390625 4.765625 -13.03125 4.390625 -13.65625 C 4.023438 -14.289062 3.648438 -14.921875 3.265625 -15.546875 C 3.160156 -15.753906 3.054688 -15.953125 2.953125 -16.140625 C 2.847656 -16.328125 2.738281 -16.535156 2.625 -16.765625 C 2.3125 -17.460938 2.253906 -18.125 2.453125 -18.75 C 2.660156 -19.382812 3.09375 -19.859375 3.75 -20.171875 C 4.394531 -20.503906 5.054688 -20.5625 5.734375 -20.34375 C 6.410156 -20.132812 6.941406 -19.707031 7.328125 -19.0625 C 7.523438 -18.71875 7.710938 -18.375 7.890625 -18.03125 C 8.066406 -17.6875 8.25 -17.34375 8.4375 -17 C 8.5 -16.882812 8.566406 -16.765625 8.640625 -16.640625 C 8.722656 -16.523438 8.820312 -16.375 8.9375 -16.1875 C 9.09375 -16.375 9.238281 -16.546875 9.375 -16.703125 C 9.507812 -16.859375 9.632812 -17.015625 9.75 -17.171875 C 10.0625 -17.554688 10.367188 -17.9375 10.671875 -18.3125 C 10.972656 -18.695312 11.285156 -19.082031 11.609375 -19.46875 C 12.171875 -20.144531 12.867188 -20.492188 13.703125 -20.515625 C 14.773438 -20.515625 15.5625 -20.085938 16.0625 -19.234375 C 16.332031 -18.773438 16.441406 -18.320312 16.390625 -17.875 C 16.347656 -17.425781 16.171875 -16.988281 15.859375 -16.5625 C 14.984375 -15.414062 14.050781 -14.25 13.0625 -13.0625 C 12.875 -12.851562 12.703125 -12.632812 12.546875 -12.40625 C 12.390625 -12.1875 12.210938 -11.953125 12.015625 -11.703125 Z M 12.015625 -11.703125 "/></g></g></g><g fill="#3edbf0" fill-opacity="1"><g transform="translate(84.634642, 30.920474)"><g/></g></g><g fill="#3edbf0" fill-opacity="1"><g transform="translate(97.049882, 30.920474)"><g><path d="M 6.3125 -14.546875 C 6.289062 -13.679688 6.28125 -12.742188 6.28125 -11.734375 C 6.28125 -10.722656 6.28125 -9.691406 6.28125 -8.640625 C 6.28125 -7.597656 6.28125 -6.566406 6.28125 -5.546875 C 6.28125 -4.523438 6.265625 -3.585938 6.234375 -2.734375 C 6.234375 -1.609375 5.945312 -0.722656 5.375 -0.078125 C 4.800781 0.554688 4.085938 0.804688 3.234375 0.671875 C 2.648438 0.554688 2.15625 0.242188 1.75 -0.265625 C 1.34375 -0.785156 1.097656 -1.414062 1.015625 -2.15625 C 0.992188 -2.3125 0.984375 -2.460938 0.984375 -2.609375 C 0.984375 -2.753906 0.984375 -2.921875 0.984375 -3.109375 C 1.003906 -6.546875 1.066406 -9.960938 1.171875 -13.359375 C 1.285156 -16.753906 1.503906 -20.160156 1.828125 -23.578125 C 1.890625 -24.453125 2.144531 -25.117188 2.59375 -25.578125 C 3.039062 -26.046875 3.554688 -26.3125 4.140625 -26.375 C 4.734375 -26.445312 5.328125 -26.3125 5.921875 -25.96875 C 6.515625 -25.632812 7.003906 -25.097656 7.390625 -24.359375 C 7.835938 -23.503906 8.269531 -22.578125 8.6875 -21.578125 C 9.101562 -20.578125 9.523438 -19.539062 9.953125 -18.46875 C 10.378906 -17.394531 10.800781 -16.316406 11.21875 -15.234375 C 11.632812 -14.160156 12.066406 -13.128906 12.515625 -12.140625 C 12.554688 -12.953125 12.609375 -13.851562 12.671875 -14.84375 C 12.742188 -15.832031 12.828125 -16.84375 12.921875 -17.875 C 13.015625 -18.914062 13.097656 -19.929688 13.171875 -20.921875 C 13.253906 -21.910156 13.335938 -22.796875 13.421875 -23.578125 C 13.492188 -24.179688 13.632812 -24.707031 13.84375 -25.15625 C 14.0625 -25.613281 14.332031 -25.976562 14.65625 -26.25 C 14.976562 -26.519531 15.34375 -26.679688 15.75 -26.734375 C 16.15625 -26.785156 16.570312 -26.710938 17 -26.515625 C 17.519531 -26.265625 17.925781 -25.882812 18.21875 -25.375 C 18.507812 -24.875 18.65625 -24.265625 18.65625 -23.546875 C 18.632812 -22.960938 18.597656 -22.390625 18.546875 -21.828125 C 18.503906 -21.265625 18.460938 -20.691406 18.421875 -20.109375 C 18.242188 -17.628906 18.066406 -15.171875 17.890625 -12.734375 C 17.722656 -10.296875 17.550781 -7.847656 17.375 -5.390625 C 17.300781 -4.335938 17.164062 -3.328125 16.96875 -2.359375 C 16.65625 -0.921875 15.925781 -0.078125 14.78125 0.171875 C 13.601562 0.421875 12.679688 -0.0703125 12.015625 -1.3125 C 11.804688 -1.675781 11.625 -2.050781 11.46875 -2.4375 C 11.3125 -2.832031 11.144531 -3.222656 10.96875 -3.609375 C 10.601562 -4.398438 10.238281 -5.289062 9.875 -6.28125 C 9.519531 -7.269531 9.148438 -8.269531 8.765625 -9.28125 C 8.390625 -10.289062 7.992188 -11.253906 7.578125 -12.171875 C 7.160156 -13.097656 6.738281 -13.890625 6.3125 -14.546875 Z M 6.3125 -14.546875 "/></g></g></g><g fill="#3edbf0" fill-opacity="1"><g transform="translate(116.448702, 30.920474)"><g><path d="M 1.109375 -13.453125 C 1.085938 -13.835938 1.144531 -14.195312 1.28125 -14.53125 C 1.414062 -14.875 1.597656 -15.160156 1.828125 -15.390625 C 2.066406 -15.628906 2.34375 -15.820312 2.65625 -15.96875 C 2.976562 -16.113281 3.316406 -16.1875 3.671875 -16.1875 C 4.421875 -16.207031 5.046875 -15.96875 5.546875 -15.46875 C 6.054688 -14.976562 6.320312 -14.34375 6.34375 -13.5625 C 6.34375 -12.957031 6.347656 -12.238281 6.359375 -11.40625 C 6.367188 -10.570312 6.375 -9.710938 6.375 -8.828125 C 6.375 -7.953125 6.375 -7.101562 6.375 -6.28125 C 6.375 -5.46875 6.363281 -4.757812 6.34375 -4.15625 C 6.34375 -3.695312 6.242188 -3.285156 6.046875 -2.921875 C 5.859375 -2.566406 5.613281 -2.269531 5.3125 -2.03125 C 5.007812 -1.800781 4.660156 -1.644531 4.265625 -1.5625 C 3.867188 -1.488281 3.457031 -1.507812 3.03125 -1.625 C 2.445312 -1.78125 1.984375 -2.054688 1.640625 -2.453125 C 1.304688 -2.859375 1.128906 -3.359375 1.109375 -3.953125 C 1.109375 -5.523438 1.113281 -6.832031 1.125 -7.875 C 1.132812 -8.925781 1.140625 -9.796875 1.140625 -10.484375 C 1.140625 -11.179688 1.140625 -11.75 1.140625 -12.1875 C 1.140625 -12.632812 1.128906 -13.054688 1.109375 -13.453125 Z M 4.21875 -18.28125 C 3.445312 -18.28125 2.800781 -18.515625 2.28125 -18.984375 C 1.769531 -19.460938 1.503906 -20.050781 1.484375 -20.75 C 1.484375 -21.445312 1.726562 -22.03125 2.21875 -22.5 C 2.71875 -22.96875 3.328125 -23.203125 4.046875 -23.203125 C 4.785156 -23.203125 5.421875 -22.960938 5.953125 -22.484375 C 6.484375 -22.003906 6.757812 -21.425781 6.78125 -20.75 C 6.800781 -20.050781 6.554688 -19.460938 6.046875 -18.984375 C 5.546875 -18.515625 4.9375 -18.28125 4.21875 -18.28125 Z M 4.21875 -18.28125 "/></g></g></g><g fill="#3edbf0" fill-opacity="1"><g transform="translate(124.309442, 30.920474)"><g><path d="M 1.484375 -14.734375 C 1.773438 -15.929688 2.273438 -16.984375 2.984375 -17.890625 C 3.691406 -18.804688 4.523438 -19.554688 5.484375 -20.140625 C 6.441406 -20.722656 7.476562 -21.128906 8.59375 -21.359375 C 9.71875 -21.597656 10.84375 -21.628906 11.96875 -21.453125 C 12.082031 -21.429688 12.203125 -21.414062 12.328125 -21.40625 C 12.453125 -21.394531 12.570312 -21.363281 12.6875 -21.3125 C 12.769531 -21.445312 12.84375 -21.578125 12.90625 -21.703125 C 12.976562 -21.828125 13.050781 -21.945312 13.125 -22.0625 C 13.769531 -23.03125 14.691406 -23.425781 15.890625 -23.25 C 16.648438 -23.0625 17.203125 -22.707031 17.546875 -22.1875 C 17.898438 -21.675781 18.113281 -21.082031 18.1875 -20.40625 C 18.425781 -17.800781 18.625 -15.203125 18.78125 -12.609375 C 18.945312 -10.023438 19.050781 -7.421875 19.09375 -4.796875 C 19.09375 -3.941406 19.019531 -3.117188 18.875 -2.328125 C 18.726562 -1.535156 18.488281 -0.800781 18.15625 -0.125 C 17.832031 0.539062 17.40625 1.125 16.875 1.625 C 16.351562 2.132812 15.707031 2.535156 14.9375 2.828125 C 14.113281 3.171875 13.1875 3.347656 12.15625 3.359375 C 11.132812 3.367188 10.097656 3.289062 9.046875 3.125 C 8.003906 2.957031 7.003906 2.710938 6.046875 2.390625 C 5.097656 2.078125 4.285156 1.753906 3.609375 1.421875 C 3.023438 1.097656 2.617188 0.671875 2.390625 0.140625 C 2.171875 -0.378906 2.148438 -0.921875 2.328125 -1.484375 C 2.523438 -2.066406 2.894531 -2.519531 3.4375 -2.84375 C 3.976562 -3.175781 4.550781 -3.285156 5.15625 -3.171875 C 5.425781 -3.128906 5.695312 -3.0625 5.96875 -2.96875 C 6.238281 -2.875 6.507812 -2.785156 6.78125 -2.703125 C 7.59375 -2.453125 8.410156 -2.179688 9.234375 -1.890625 C 10.066406 -1.597656 10.820312 -1.453125 11.5 -1.453125 C 12.175781 -1.453125 12.726562 -1.675781 13.15625 -2.125 C 13.582031 -2.570312 13.796875 -3.40625 13.796875 -4.625 C 13.796875 -5.207031 13.785156 -5.773438 13.765625 -6.328125 C 13.742188 -6.878906 13.742188 -7.445312 13.765625 -8.03125 C 13.242188 -7.394531 12.65625 -6.84375 12 -6.375 C 11.351562 -5.90625 10.679688 -5.535156 9.984375 -5.265625 C 9.285156 -4.992188 8.570312 -4.832031 7.84375 -4.78125 C 7.113281 -4.738281 6.398438 -4.832031 5.703125 -5.0625 C 4.710938 -5.394531 3.894531 -5.914062 3.25 -6.625 C 2.613281 -7.332031 2.125 -8.140625 1.78125 -9.046875 C 1.445312 -9.960938 1.253906 -10.921875 1.203125 -11.921875 C 1.160156 -12.921875 1.253906 -13.859375 1.484375 -14.734375 Z M 9.953125 -12.21875 C 10.171875 -12.664062 10.359375 -13.113281 10.515625 -13.5625 C 10.679688 -14.007812 10.832031 -14.46875 10.96875 -14.9375 C 11.050781 -15.1875 11.113281 -15.421875 11.15625 -15.640625 C 11.207031 -15.867188 11.203125 -16.054688 11.140625 -16.203125 C 11.085938 -16.347656 10.976562 -16.453125 10.8125 -16.515625 C 10.644531 -16.585938 10.390625 -16.601562 10.046875 -16.5625 C 9.128906 -16.445312 8.363281 -16.101562 7.75 -15.53125 C 7.144531 -14.957031 6.742188 -14.210938 6.546875 -13.296875 C 6.390625 -12.367188 6.40625 -11.640625 6.59375 -11.109375 C 6.78125 -10.585938 7.0625 -10.273438 7.4375 -10.171875 C 7.8125 -10.066406 8.226562 -10.179688 8.6875 -10.515625 C 9.144531 -10.859375 9.566406 -11.425781 9.953125 -12.21875 Z M 9.953125 -12.21875 "/></g></g></g><g fill="#3edbf0" fill-opacity="1"><g transform="translate(144.754107, 30.920474)"><g><path d="M 6.375 -14.203125 C 7.65625 -15.347656 8.988281 -16.035156 10.375 -16.265625 C 11.757812 -16.503906 13.035156 -16.359375 14.203125 -15.828125 C 15.367188 -15.304688 16.332031 -14.445312 17.09375 -13.25 C 17.863281 -12.0625 18.269531 -10.625 18.3125 -8.9375 C 18.332031 -8.3125 18.34375 -7.6875 18.34375 -7.0625 C 18.34375 -6.445312 18.34375 -5.820312 18.34375 -5.1875 C 18.34375 -4.71875 18.320312 -4.265625 18.28125 -3.828125 C 18.238281 -3.390625 18.128906 -2.988281 17.953125 -2.625 C 17.785156 -2.269531 17.550781 -1.972656 17.25 -1.734375 C 16.945312 -1.503906 16.550781 -1.363281 16.0625 -1.3125 C 15.5 -1.269531 15.015625 -1.347656 14.609375 -1.546875 C 14.203125 -1.753906 13.875 -2.03125 13.625 -2.375 C 13.375 -2.726562 13.191406 -3.125 13.078125 -3.5625 C 12.972656 -4 12.941406 -4.429688 12.984375 -4.859375 C 13.003906 -5.640625 13.046875 -6.414062 13.109375 -7.1875 C 13.179688 -7.96875 13.082031 -8.707031 12.8125 -9.40625 C 12.5 -10.3125 11.992188 -10.867188 11.296875 -11.078125 C 10.597656 -11.296875 9.914062 -11.175781 9.25 -10.71875 C 8.59375 -10.269531 8.039062 -9.492188 7.59375 -8.390625 C 7.144531 -7.296875 7.007812 -5.867188 7.1875 -4.109375 C 7.226562 -3.617188 7.144531 -3.171875 6.9375 -2.765625 C 6.738281 -2.359375 6.472656 -2.015625 6.140625 -1.734375 C 5.804688 -1.453125 5.429688 -1.253906 5.015625 -1.140625 C 4.597656 -1.035156 4.195312 -1.023438 3.8125 -1.109375 C 3.269531 -1.265625 2.828125 -1.578125 2.484375 -2.046875 C 2.148438 -2.523438 1.960938 -3.046875 1.921875 -3.609375 C 1.828125 -4.441406 1.757812 -5.269531 1.71875 -6.09375 C 1.675781 -6.914062 1.617188 -7.726562 1.546875 -8.53125 C 1.441406 -10.0625 1.320312 -11.578125 1.1875 -13.078125 C 1.050781 -14.585938 0.925781 -16.109375 0.8125 -17.640625 C 0.757812 -18.273438 0.707031 -18.898438 0.65625 -19.515625 C 0.601562 -20.128906 0.566406 -20.753906 0.546875 -21.390625 C 0.492188 -21.859375 0.546875 -22.296875 0.703125 -22.703125 C 0.859375 -23.109375 1.082031 -23.457031 1.375 -23.75 C 1.675781 -24.039062 2.023438 -24.25 2.421875 -24.375 C 2.828125 -24.5 3.269531 -24.523438 3.75 -24.453125 C 4.332031 -24.335938 4.804688 -24.066406 5.171875 -23.640625 C 5.546875 -23.210938 5.753906 -22.675781 5.796875 -22.03125 C 5.847656 -21.375 5.890625 -20.722656 5.921875 -20.078125 C 5.953125 -19.441406 5.988281 -18.800781 6.03125 -18.15625 C 6.082031 -17.519531 6.140625 -16.878906 6.203125 -16.234375 C 6.273438 -15.597656 6.332031 -14.921875 6.375 -14.203125 Z M 6.375 -14.203125 "/></g></g></g><g fill="#3edbf0" fill-opacity="1"><g transform="translate(164.557763, 30.920474)"><g><path d="M 6.40625 -12.140625 C 6 -12.140625 5.617188 -12.132812 5.265625 -12.125 C 4.921875 -12.113281 4.570312 -12.117188 4.21875 -12.140625 C 3.96875 -12.160156 3.722656 -12.179688 3.484375 -12.203125 C 3.253906 -12.234375 3.023438 -12.28125 2.796875 -12.34375 C 2.210938 -12.550781 1.78125 -12.878906 1.5 -13.328125 C 1.21875 -13.773438 1.097656 -14.28125 1.140625 -14.84375 C 1.210938 -15.445312 1.414062 -15.90625 1.75 -16.21875 C 2.09375 -16.539062 2.5 -16.757812 2.96875 -16.875 C 3.4375 -17 3.9375 -17.066406 4.46875 -17.078125 C 5 -17.097656 5.476562 -17.128906 5.90625 -17.171875 C 6.039062 -17.171875 6.179688 -17.175781 6.328125 -17.1875 C 6.472656 -17.195312 6.632812 -17.210938 6.8125 -17.234375 C 6.988281 -18.859375 7.164062 -20.4375 7.34375 -21.96875 C 7.53125 -23.507812 7.738281 -25.046875 7.96875 -26.578125 C 8.03125 -27.003906 8.160156 -27.382812 8.359375 -27.71875 C 8.566406 -28.0625 8.828125 -28.332031 9.140625 -28.53125 C 9.453125 -28.738281 9.796875 -28.867188 10.171875 -28.921875 C 10.546875 -28.984375 10.929688 -28.957031 11.328125 -28.84375 C 11.941406 -28.664062 12.414062 -28.34375 12.75 -27.875 C 13.082031 -27.414062 13.21875 -26.835938 13.15625 -26.140625 C 13.039062 -24.640625 12.878906 -23.164062 12.671875 -21.71875 C 12.472656 -20.28125 12.296875 -18.832031 12.140625 -17.375 C 12.453125 -17.375 12.738281 -17.378906 13 -17.390625 C 13.257812 -17.398438 13.515625 -17.394531 13.765625 -17.375 C 14.171875 -17.351562 14.566406 -17.296875 14.953125 -17.203125 C 15.347656 -17.109375 15.695312 -16.96875 16 -16.78125 C 16.3125 -16.59375 16.5625 -16.34375 16.75 -16.03125 C 16.9375 -15.726562 17.039062 -15.351562 17.0625 -14.90625 C 17.09375 -14.394531 16.953125 -13.929688 16.640625 -13.515625 C 16.335938 -13.097656 15.929688 -12.796875 15.421875 -12.609375 C 15.191406 -12.523438 14.960938 -12.472656 14.734375 -12.453125 C 14.515625 -12.429688 14.289062 -12.40625 14.0625 -12.375 C 13.707031 -12.351562 13.34375 -12.347656 12.96875 -12.359375 C 12.601562 -12.367188 12.203125 -12.375 11.765625 -12.375 C 11.722656 -11.113281 11.640625 -9.796875 11.515625 -8.421875 C 11.390625 -7.054688 11.34375 -5.441406 11.375 -3.578125 C 11.375 -2.921875 11.257812 -2.347656 11.03125 -1.859375 C 10.800781 -1.378906 10.394531 -1.03125 9.8125 -0.8125 C 9.269531 -0.601562 8.769531 -0.550781 8.3125 -0.65625 C 7.851562 -0.757812 7.457031 -0.960938 7.125 -1.265625 C 6.800781 -1.566406 6.546875 -1.945312 6.359375 -2.40625 C 6.171875 -2.875 6.078125 -3.34375 6.078125 -3.8125 C 6.097656 -5.539062 6.144531 -7.054688 6.21875 -8.359375 C 6.300781 -9.671875 6.363281 -10.929688 6.40625 -12.140625 Z M 6.40625 -12.140625 "/></g></g></g><g fill="#3edbf0" fill-opacity="1"><g transform="translate(182.640841, 30.920474)"><g/></g></g><g fill="#3edbf0" fill-opacity="1"><g transform="translate(195.056076, 30.920474)"><g><path d="M 18.546875 -6.546875 C 18.035156 -5.535156 17.4375 -4.617188 16.75 -3.796875 C 16.0625 -2.972656 15.257812 -2.289062 14.34375 -1.75 C 13.53125 -1.28125 12.65625 -0.972656 11.71875 -0.828125 C 10.789062 -0.679688 9.859375 -0.703125 8.921875 -0.890625 C 7.984375 -1.085938 7.078125 -1.4375 6.203125 -1.9375 C 5.328125 -2.445312 4.539062 -3.101562 3.84375 -3.90625 C 2.65625 -5.28125 1.859375 -6.804688 1.453125 -8.484375 C 1.046875 -10.160156 0.863281 -11.941406 0.90625 -13.828125 C 0.925781 -15.492188 1.164062 -17.125 1.625 -18.71875 C 2.09375 -20.320312 2.75 -21.75 3.59375 -23 C 4.4375 -24.257812 5.46875 -25.289062 6.6875 -26.09375 C 7.914062 -26.894531 9.332031 -27.316406 10.9375 -27.359375 C 12.613281 -27.421875 14.046875 -27.109375 15.234375 -26.421875 C 16.429688 -25.742188 17.410156 -24.820312 18.171875 -23.65625 C 18.941406 -22.5 19.503906 -21.175781 19.859375 -19.6875 C 20.222656 -18.207031 20.410156 -16.6875 20.421875 -15.125 C 20.429688 -13.5625 20.273438 -12.03125 19.953125 -10.53125 C 19.628906 -9.039062 19.160156 -7.710938 18.546875 -6.546875 Z M 11.609375 -21.5625 C 10.992188 -21.601562 10.394531 -21.472656 9.8125 -21.171875 C 9.226562 -20.867188 8.710938 -20.421875 8.265625 -19.828125 C 7.953125 -19.378906 7.664062 -18.785156 7.40625 -18.046875 C 7.144531 -17.304688 6.945312 -16.488281 6.8125 -15.59375 C 6.675781 -14.707031 6.613281 -13.785156 6.625 -12.828125 C 6.632812 -11.878906 6.734375 -10.988281 6.921875 -10.15625 C 7.210938 -8.800781 7.679688 -7.785156 8.328125 -7.109375 C 8.984375 -6.441406 9.679688 -6.085938 10.421875 -6.046875 C 11.160156 -6.015625 11.882812 -6.300781 12.59375 -6.90625 C 13.300781 -7.519531 13.859375 -8.429688 14.265625 -9.640625 C 14.472656 -10.253906 14.644531 -10.960938 14.78125 -11.765625 C 14.914062 -12.578125 15 -13.414062 15.03125 -14.28125 C 15.0625 -15.144531 15.023438 -16 14.921875 -16.84375 C 14.828125 -17.6875 14.648438 -18.445312 14.390625 -19.125 C 14.128906 -19.800781 13.765625 -20.359375 13.296875 -20.796875 C 12.835938 -21.234375 12.273438 -21.488281 11.609375 -21.5625 Z M 11.609375 -21.5625 "/></g></g></g><g fill="#3edbf0" fill-opacity="1"><g transform="translate(216.580319, 30.920474)"><g><path d="M 7.859375 -1.546875 C 6.597656 -1.867188 5.535156 -2.390625 4.671875 -3.109375 C 3.804688 -3.828125 3.117188 -4.675781 2.609375 -5.65625 C 2.109375 -6.632812 1.75 -7.695312 1.53125 -8.84375 C 1.320312 -9.988281 1.234375 -11.148438 1.265625 -12.328125 C 1.296875 -13.503906 1.429688 -14.65625 1.671875 -15.78125 C 1.910156 -16.90625 2.207031 -17.941406 2.5625 -18.890625 C 2.769531 -19.453125 3.039062 -19.914062 3.375 -20.28125 C 3.707031 -20.65625 4.078125 -20.9375 4.484375 -21.125 C 4.890625 -21.320312 5.300781 -21.425781 5.71875 -21.4375 C 6.132812 -21.445312 6.519531 -21.351562 6.875 -21.15625 C 7.125 -21.019531 7.351562 -20.835938 7.5625 -20.609375 C 7.78125 -20.390625 7.953125 -20.113281 8.078125 -19.78125 C 8.203125 -19.457031 8.257812 -19.09375 8.25 -18.6875 C 8.238281 -18.28125 8.128906 -17.84375 7.921875 -17.375 C 7.742188 -16.96875 7.585938 -16.476562 7.453125 -15.90625 C 7.316406 -15.332031 7.203125 -14.71875 7.109375 -14.0625 C 7.023438 -13.414062 6.984375 -12.75 6.984375 -12.0625 C 6.984375 -11.375 7.039062 -10.71875 7.15625 -10.09375 C 7.351562 -8.894531 7.757812 -8.007812 8.375 -7.4375 C 9 -6.863281 9.671875 -6.585938 10.390625 -6.609375 C 11.109375 -6.628906 11.785156 -6.929688 12.421875 -7.515625 C 13.066406 -8.109375 13.492188 -8.953125 13.703125 -10.046875 C 13.804688 -10.609375 13.851562 -11.242188 13.84375 -11.953125 C 13.832031 -12.660156 13.789062 -13.351562 13.71875 -14.03125 C 13.65625 -14.707031 13.578125 -15.34375 13.484375 -15.9375 C 13.398438 -16.53125 13.335938 -17.007812 13.296875 -17.375 C 13.140625 -18.457031 13.285156 -19.320312 13.734375 -19.96875 C 14.179688 -20.625 14.832031 -20.992188 15.6875 -21.078125 C 16.445312 -21.148438 17.117188 -20.941406 17.703125 -20.453125 C 18.296875 -19.972656 18.671875 -19.304688 18.828125 -18.453125 C 19.023438 -17.367188 19.191406 -16.207031 19.328125 -14.96875 C 19.460938 -13.738281 19.519531 -12.515625 19.5 -11.296875 C 19.457031 -9.796875 19.140625 -8.359375 18.546875 -6.984375 C 17.960938 -5.609375 17.15625 -4.445312 16.125 -3.5 C 15.09375 -2.5625 13.875 -1.894531 12.46875 -1.5 C 11.0625 -1.101562 9.523438 -1.117188 7.859375 -1.546875 Z M 7.859375 -1.546875 "/></g></g></g><g fill="#3edbf0" fill-opacity="1"><g transform="translate(237.42982, 30.920474)"><g><path d="M 6.40625 -12.140625 C 6 -12.140625 5.617188 -12.132812 5.265625 -12.125 C 4.921875 -12.113281 4.570312 -12.117188 4.21875 -12.140625 C 3.96875 -12.160156 3.722656 -12.179688 3.484375 -12.203125 C 3.253906 -12.234375 3.023438 -12.28125 2.796875 -12.34375 C 2.210938 -12.550781 1.78125 -12.878906 1.5 -13.328125 C 1.21875 -13.773438 1.097656 -14.28125 1.140625 -14.84375 C 1.210938 -15.445312 1.414062 -15.90625 1.75 -16.21875 C 2.09375 -16.539062 2.5 -16.757812 2.96875 -16.875 C 3.4375 -17 3.9375 -17.066406 4.46875 -17.078125 C 5 -17.097656 5.476562 -17.128906 5.90625 -17.171875 C 6.039062 -17.171875 6.179688 -17.175781 6.328125 -17.1875 C 6.472656 -17.195312 6.632812 -17.210938 6.8125 -17.234375 C 6.988281 -18.859375 7.164062 -20.4375 7.34375 -21.96875 C 7.53125 -23.507812 7.738281 -25.046875 7.96875 -26.578125 C 8.03125 -27.003906 8.160156 -27.382812 8.359375 -27.71875 C 8.566406 -28.0625 8.828125 -28.332031 9.140625 -28.53125 C 9.453125 -28.738281 9.796875 -28.867188 10.171875 -28.921875 C 10.546875 -28.984375 10.929688 -28.957031 11.328125 -28.84375 C 11.941406 -28.664062 12.414062 -28.34375 12.75 -27.875 C 13.082031 -27.414062 13.21875 -26.835938 13.15625 -26.140625 C 13.039062 -24.640625 12.878906 -23.164062 12.671875 -21.71875 C 12.472656 -20.28125 12.296875 -18.832031 12.140625 -17.375 C 12.453125 -17.375 12.738281 -17.378906 13 -17.390625 C 13.257812 -17.398438 13.515625 -17.394531 13.765625 -17.375 C 14.171875 -17.351562 14.566406 -17.296875 14.953125 -17.203125 C 15.347656 -17.109375 15.695312 -16.96875 16 -16.78125 C 16.3125 -16.59375 16.5625 -16.34375 16.75 -16.03125 C 16.9375 -15.726562 17.039062 -15.351562 17.0625 -14.90625 C 17.09375 -14.394531 16.953125 -13.929688 16.640625 -13.515625 C 16.335938 -13.097656 15.929688 -12.796875 15.421875 -12.609375 C 15.191406 -12.523438 14.960938 -12.472656 14.734375 -12.453125 C 14.515625 -12.429688 14.289062 -12.40625 14.0625 -12.375 C 13.707031 -12.351562 13.34375 -12.347656 12.96875 -12.359375 C 12.601562 -12.367188 12.203125 -12.375 11.765625 -12.375 C 11.722656 -11.113281 11.640625 -9.796875 11.515625 -8.421875 C 11.390625 -7.054688 11.34375 -5.441406 11.375 -3.578125 C 11.375 -2.921875 11.257812 -2.347656 11.03125 -1.859375 C 10.800781 -1.378906 10.394531 -1.03125 9.8125 -0.8125 C 9.269531 -0.601562 8.769531 -0.550781 8.3125 -0.65625 C 7.851562 -0.757812 7.457031 -0.960938 7.125 -1.265625 C 6.800781 -1.566406 6.546875 -1.945312 6.359375 -2.40625 C 6.171875 -2.875 6.078125 -3.34375 6.078125 -3.8125 C 6.097656 -5.539062 6.144531 -7.054688 6.21875 -8.359375 C 6.300781 -9.671875 6.363281 -10.929688 6.40625 -12.140625 Z M 6.40625 -12.140625 "/></g></g></g></svg>