<svg xmlns="http://www.w3.org/2000/svg" xmlns:xlink="http://www.w3.org/1999/xlink" width="350" zoomAndPan="magnify" viewBox="0 0 262.5 37.5" height="50" preserveAspectRatio="xMidYMid meet" version="1.0"><defs><g/><clipPath id="e04c4ba53d"><path d="M 1.480469 0 L 260.527344 0 L 260.527344 37.007812 L 1.480469 37.007812 Z M 1.480469 0 " clip-rule="nonzero"/></clipPath></defs><g clip-path="url(#e04c4ba53d)"><path stroke-linecap="butt" transform="matrix(0.740132, 0, 0, 0.740132, 1.52023, 1.036193)" fill="none" stroke-linejoin="miter" d="M 16.006556 21.690267 C 16.486834 20.613601 17.01989 19.389156 17.605723 18.027489 C 18.196834 16.655267 18.803779 15.330545 19.426557 14.053323 C 19.959612 13.045267 20.545446 12.269434 21.189334 11.715267 C 21.838501 11.166378 22.477112 10.765267 23.094612 10.511934 C 23.722668 10.263878 24.313779 10.137211 24.862668 10.137211 C 25.411557 10.137211 25.870724 10.2111 26.23489 10.3536 C 26.89989 10.617489 27.427668 11.013322 27.807668 11.5411 C 28.192946 12.068878 28.483224 12.944989 28.678501 14.169434 C 28.963501 15.969156 29.13239 17.8111 29.17989 19.695267 C 29.232668 21.574156 29.195724 23.437212 29.074335 25.273879 C 28.952946 27.110545 28.773501 28.889157 28.536001 30.61499 C 28.293224 32.346101 28.045168 33.976935 27.781279 35.512768 C 27.61239 36.473323 27.237668 37.21749 26.657112 37.745268 C 26.081835 38.273046 25.411557 38.473601 24.641001 38.352212 C 23.902112 38.230824 23.28989 37.83499 22.809612 37.164712 C 22.334612 36.489157 22.155168 35.64999 22.271279 34.641935 C 22.603779 31.960823 22.899334 29.242768 23.14739 26.498323 C 23.400723 23.748601 23.38489 20.983045 23.094612 18.201656 C 22.260723 20.048878 21.474334 21.906656 20.740723 23.780267 C 20.01239 25.648601 19.236557 27.506379 18.423779 29.353601 C 18.181001 29.90249 17.853779 30.298323 17.431556 30.541101 C 17.009334 30.778601 16.560723 30.873601 16.096279 30.826101 C 15.631834 30.783879 15.172667 30.588601 14.713501 30.256101 C 14.259612 29.918323 13.874334 29.438045 13.562945 28.815268 C 13.415167 28.530268 13.235723 28.118601 13.019334 27.57499 C 12.808223 27.031379 12.581279 26.445545 12.343778 25.812212 C 12.101001 25.173601 11.863501 24.524434 11.620723 23.86999 C 11.383223 23.20499 11.145723 22.619156 10.918778 22.101934 C 10.691834 21.58999 10.480723 21.173045 10.285445 20.866934 C 10.090167 20.550267 9.947667 20.428878 9.857945 20.502767 C 9.636278 20.576656 9.493778 20.903878 9.425167 21.49499 C 9.356556 22.080823 9.335445 22.809156 9.372389 23.674712 C 9.409334 24.53499 9.483223 25.48499 9.599334 26.514156 C 9.726001 27.543323 9.863223 28.556657 10.016278 29.554157 C 10.169334 30.551657 10.327667 31.480546 10.480723 32.346101 C 10.639056 33.211657 10.792112 33.89249 10.934612 34.393879 C 11.17739 35.280546 11.156278 36.103879 10.881834 36.874435 C 10.60739 37.639712 10.206278 38.193879 9.673223 38.536935 C 9.024056 38.938046 8.348501 39.043601 7.641278 38.843046 C 6.934056 38.637212 6.374612 38.151657 5.9735 37.381101 C 5.709612 36.826935 5.493223 36.177768 5.319056 35.433601 C 4.099889 29.485545 3.772667 23.743323 4.347945 18.201656 C 4.448223 17.188323 4.696278 16.280545 5.102667 15.478323 C 5.514334 14.6761 5.999889 14.016378 6.559334 13.499156 C 7.124056 12.987211 7.746834 12.6336 8.432945 12.438322 C 9.119056 12.243045 9.794612 12.237767 10.459612 12.422489 C 11.135167 12.601934 11.779056 12.992489 12.386001 13.599434 C 13.003501 14.195823 13.526001 15.019156 13.958779 16.074712 C 14.370445 17.061656 14.745167 18.059156 15.093501 19.083045 C 15.436556 20.101656 15.742668 20.97249 16.006556 21.690267 Z M 42.706835 25.469156 C 42.706835 23.859434 42.490446 22.645545 42.057669 21.832767 C 41.630169 21.014712 41.097113 20.529156 40.458502 20.365545 C 39.825169 20.191378 39.149613 20.333878 38.431835 20.777212 C 37.70878 21.215267 37.075446 21.906656 36.52128 22.840823 C 36.114891 23.53749 35.534335 23.975545 34.790168 24.160267 C 34.046002 24.334434 33.328224 24.218323 32.631557 23.806656 C 31.93489 23.405545 31.491557 22.851378 31.312113 22.154712 C 31.137946 21.458045 31.264613 20.750823 31.69739 20.027767 C 32.156557 19.283601 32.684335 18.629156 33.280724 18.053878 C 34.484057 16.950823 35.756002 16.153878 37.112391 15.663045 C 38.46878 15.172211 39.777669 14.976934 41.039057 15.071934 C 42.300446 15.166934 43.461558 15.562767 44.527669 16.259434 C 45.59378 16.950823 46.438224 17.921934 47.06628 19.167489 C 47.44628 19.911656 47.736558 20.750823 47.926558 21.690267 C 48.121836 22.629712 48.259058 23.590267 48.343502 24.571934 C 48.422669 25.548323 48.486002 26.519434 48.533502 27.47999 C 48.58628 28.440545 48.649613 29.327212 48.718224 30.145268 C 48.786836 31.105823 48.829058 31.997768 48.839613 32.831657 C 48.860724 33.660268 48.707669 34.515268 48.391002 35.396657 C 48.174613 35.998323 47.768224 36.441657 47.171835 36.716101 C 46.575447 36.990546 45.963224 37.043324 45.335169 36.874435 C 44.97628 36.779435 44.654335 36.763601 44.35878 36.821657 C 44.07378 36.879712 43.762391 36.97999 43.429891 37.127768 C 42.274058 37.724157 41.097113 38.114712 39.899057 38.299435 C 38.701002 38.478879 37.455446 38.436657 36.162391 38.172768 C 35.080446 37.956379 34.188502 37.555268 33.491835 36.969435 C 32.800446 36.378323 32.283224 35.69749 31.945446 34.932212 C 31.612946 34.166935 31.449335 33.343601 31.45989 32.472768 C 31.475724 31.591379 31.634057 30.741657 31.945446 29.913045 C 32.262113 29.084434 32.731835 28.329712 33.349335 27.648879 C 33.977391 26.962768 34.742668 26.413879 35.650446 26.002212 C 36.737668 25.521934 37.89878 25.268601 39.13378 25.231656 C 40.36878 25.194712 41.561557 25.273879 42.706835 25.469156 Z M 42.416558 31.512212 C 42.179058 31.010823 41.783224 30.641379 41.234335 30.414434 C 40.680169 30.18749 40.115446 30.081934 39.534891 30.108323 C 38.964891 30.129434 38.442391 30.287768 37.972668 30.583323 C 37.508224 30.868323 37.249613 31.290546 37.196835 31.839434 C 37.154613 32.293323 37.392113 32.668046 37.919891 32.953046 C 38.447668 33.243323 39.22878 33.22749 40.268502 32.921379 C 40.669613 32.794712 41.060169 32.620546 41.445446 32.393601 C 41.830724 32.161379 42.152669 31.871101 42.416558 31.512212 Z M 56.418503 19.748045 C 57.595447 18.502489 58.782947 17.615823 59.975725 17.088045 C 61.179058 16.554989 62.319058 16.317489 63.395725 16.380823 C 64.47767 16.444156 65.469892 16.760823 66.367114 17.341378 C 67.269614 17.916656 68.019059 18.692489 68.615448 19.679434 C 69.217114 20.655823 69.634059 21.801101 69.861003 23.115267 C 70.093225 24.418879 70.061559 25.828045 69.776559 27.342768 C 69.676281 27.844156 69.470448 28.276934 69.159059 28.641101 C 68.84767 28.99999 68.483503 29.263879 68.061281 29.432768 C 67.639059 29.596379 67.190447 29.66499 66.71017 29.643879 C 66.229892 29.61749 65.786558 29.464434 65.38017 29.174157 C 64.493503 28.57249 64.108225 27.743879 64.229614 26.688323 C 64.303503 25.875545 64.250725 25.094434 64.081836 24.350267 C 63.918225 23.611379 63.643781 23.01499 63.253225 22.566378 C 62.873225 22.123045 62.377114 21.885545 61.759614 21.848601 C 61.152669 21.811656 60.424336 22.096656 59.585169 22.698323 C 58.962392 23.173323 58.519058 23.864712 58.255169 24.767212 C 57.99128 25.669712 57.838225 26.646101 57.80128 27.701656 C 57.764336 28.757212 57.827669 29.802212 57.986003 30.847212 C 58.144336 31.886934 58.313225 32.768323 58.503225 33.491379 C 58.603503 33.855546 58.677392 34.22499 58.719614 34.60499 C 58.767114 35.349157 58.614058 35.987768 58.265725 36.515546 C 57.917392 37.038046 57.410725 37.402212 56.745725 37.592212 C 56.070169 37.78749 55.37878 37.782212 54.671558 37.576379 C 53.964336 37.370546 53.462947 36.958879 53.177947 36.336101 C 53.035447 36.024712 52.935169 35.655268 52.871836 35.22249 C 52.81378 34.789712 52.734614 34.393879 52.639614 34.03499 C 52.016836 31.56499 51.57878 29.089712 51.34128 26.619712 C 51.098502 24.149712 50.861002 21.674434 50.618225 19.204434 C 50.549613 18.412767 50.755447 17.737212 51.235725 17.172489 C 51.716002 16.613045 52.349336 16.280545 53.141002 16.180267 C 53.864058 16.085267 54.518502 16.264712 55.104336 16.708045 C 55.695447 17.1461 56.059614 17.753045 56.202114 18.518323 C 56.223225 18.713601 56.254891 18.898323 56.286558 19.083045 C 56.32878 19.262489 56.371003 19.484156 56.418503 19.748045 Z M 72.684614 27.770268 C 72.515725 26.524712 72.589614 25.273879 72.911559 24.028323 C 73.244059 22.77749 73.756003 21.616378 74.457948 20.539712 C 75.170448 19.457767 76.030726 18.518323 77.054615 17.726656 C 78.073226 16.934989 79.181559 16.364989 80.384892 16.0061 C 81.414059 15.689434 82.43267 15.552212 83.440726 15.594434 C 84.448781 15.6261 85.456837 15.800267 86.464893 16.111656 C 87.425448 16.396656 88.349059 16.781934 89.241004 17.262212 C 89.858504 17.5736 90.29656 18.006378 90.549893 18.560545 C 90.803226 19.114712 90.845448 19.674156 90.681837 20.249434 C 90.48656 20.845823 90.138226 21.326101 89.636837 21.690267 C 89.130171 22.049156 88.528504 22.202212 87.831837 22.154712 C 87.499337 22.107212 87.177393 22.033323 86.860726 21.927767 C 86.549337 21.816934 86.237948 21.700823 85.926559 21.584712 C 84.607115 21.051656 83.356281 20.909156 82.168781 21.16249 C 80.976004 21.415823 80.020726 22.096656 79.302948 23.199712 C 78.796281 23.970267 78.479615 24.809434 78.342392 25.72249 C 78.215726 26.630268 78.294892 27.532768 78.579892 28.419434 C 78.875448 29.327212 79.350448 30.055545 80.004892 30.599157 C 80.664615 31.13749 81.403504 31.528046 82.221559 31.770823 C 83.034337 32.008323 83.884059 32.124434 84.765448 32.113879 C 85.657393 32.098046 86.491282 31.997768 87.261837 31.80249 C 87.525726 31.733879 87.800171 31.702212 88.090448 31.718046 C 88.375448 31.728601 88.649893 31.770823 88.913782 31.839434 C 89.942948 32.124434 90.555171 32.821101 90.750448 33.918879 C 90.81906 34.425546 90.761004 34.874157 90.565726 35.275268 C 90.381004 35.671101 90.090726 36.040546 89.705448 36.373046 C 89.246282 36.731935 88.760726 36.964157 88.248782 37.07499 C 87.731559 37.180546 87.198504 37.259712 86.649615 37.301935 C 86.190448 37.354712 85.741837 37.381101 85.293226 37.381101 C 84.85517 37.381101 84.417115 37.370546 83.984337 37.349435 C 82.496004 37.270268 81.113226 37.006379 79.830726 36.557768 C 78.548226 36.098601 77.408226 35.465268 76.410726 34.65249 C 75.413226 33.829157 74.600448 32.852768 73.961837 31.718046 C 73.328503 30.572768 72.901003 29.258601 72.684614 27.770268 Z M 98.698782 23.854156 C 100.071004 22.629712 101.490727 21.890823 102.963227 21.63749 C 104.435727 21.384156 105.797393 21.54249 107.048227 22.101934 C 108.293782 22.666656 109.322949 23.58499 110.141005 24.851656 C 110.95906 26.123601 111.391838 27.664712 111.439338 29.464434 C 111.465727 30.134712 111.476283 30.799712 111.476283 31.459434 C 111.476283 32.124434 111.476283 32.789434 111.476283 33.454434 C 111.476283 33.961101 111.449894 34.446657 111.402394 34.916379 C 111.360172 35.380823 111.24406 35.808323 111.064616 36.198879 C 110.879894 36.578879 110.62656 36.895546 110.304616 37.143601 C 109.982671 37.396935 109.560449 37.544712 109.032671 37.592212 C 108.431005 37.639712 107.908505 37.560546 107.475727 37.349435 C 107.048227 37.133046 106.705171 36.83749 106.441282 36.468046 C 106.177394 36.093323 105.982116 35.671101 105.860727 35.206657 C 105.744616 34.736935 105.707671 34.27249 105.755171 33.813323 C 105.776282 32.979434 105.823782 32.145546 105.897671 31.322212 C 105.97156 30.488323 105.860727 29.701934 105.570449 28.957768 C 105.237949 27.997212 104.699616 27.406101 103.955449 27.184434 C 103.211282 26.952212 102.482949 27.078879 101.775727 27.559156 C 101.073782 28.034156 100.477393 28.862768 99.997115 30.039712 C 99.516838 31.216657 99.374338 32.736657 99.55906 34.60499 C 99.611838 35.132768 99.532671 35.613046 99.316282 36.045823 C 99.099893 36.478601 98.809615 36.848046 98.445449 37.143601 C 98.08656 37.444435 97.685449 37.655546 97.242115 37.776935 C 96.793504 37.898324 96.371282 37.908879 95.964893 37.813879 C 95.394893 37.64499 94.925171 37.307212 94.561004 36.805824 C 94.202115 36.299157 93.996282 35.750268 93.943504 35.153879 C 93.853782 34.261935 93.779893 33.380546 93.732393 32.504434 C 93.690171 31.628323 93.626837 30.75749 93.547671 29.897212 C 93.43156 28.261101 93.299615 26.640823 93.157115 25.036379 C 93.014615 23.426656 92.882671 21.806378 92.761282 20.180823 C 92.713782 19.505267 92.661004 18.840267 92.602949 18.185823 C 92.544893 17.520823 92.502671 16.855823 92.476282 16.180267 C 92.423504 15.678878 92.48156 15.209156 92.655726 14.781656 C 92.824615 14.348878 93.062115 13.979434 93.373504 13.668045 C 93.684893 13.351378 94.054337 13.129711 94.492393 12.997767 C 94.925171 12.865823 95.394893 12.834156 95.896282 12.902767 C 96.51906 13.024156 97.025726 13.314434 97.416282 13.7736 C 97.812115 14.232767 98.03906 14.802767 98.091838 15.494156 C 98.139338 16.190823 98.18156 16.882212 98.218504 17.568323 C 98.250171 18.254434 98.292393 18.940545 98.339893 19.631934 C 98.387393 20.307489 98.445449 20.988323 98.51406 21.674434 C 98.593227 22.360545 98.651282 23.083601 98.698782 23.854156 Z M 141.776006 10.390545 C 142.520173 10.580545 143.084895 10.934156 143.464895 11.451378 C 143.850173 11.9686 143.992673 12.570267 143.892395 13.261656 C 143.823784 13.889711 143.544062 14.422767 143.053228 14.855545 C 142.557117 15.283045 141.950173 15.509989 141.232395 15.5311 C 140.467117 15.5311 139.686006 15.441378 138.894339 15.267212 C 138.102673 15.087767 137.358506 14.971656 136.661839 14.924156 C 135.78045 14.876656 135.004617 15.0561 134.344895 15.451934 C 133.679895 15.842489 133.236561 16.328045 133.009617 16.903323 C 132.782672 17.473323 132.830172 18.064434 133.141561 18.666101 C 133.447672 19.267767 134.133784 19.748045 135.189339 20.106934 C 136.387395 20.465823 137.606561 20.840545 138.841562 21.225823 C 140.076562 21.605823 141.190173 22.123045 142.171839 22.772212 C 143.971562 23.970267 145.227673 25.29499 145.950729 26.735823 C 146.668506 28.171379 146.964062 29.591101 146.82684 30.99499 C 146.700173 32.393601 146.20934 33.697212 145.35434 34.895268 C 144.504617 36.098601 143.417395 37.048601 142.103228 37.745268 C 141.380173 38.098879 140.48295 38.378601 139.411562 38.568601 C 138.34545 38.763879 137.247673 38.864157 136.118228 38.874712 C 134.994061 38.890546 133.917395 38.816657 132.88295 38.658324 C 131.853783 38.49999 131.014617 38.278324 130.36545 37.988046 C 129.716283 37.676657 129.257117 37.254435 128.982672 36.716101 C 128.708228 36.177768 128.650172 35.591935 128.819061 34.969157 C 128.961561 34.393879 129.288783 33.918879 129.790172 33.554712 C 130.296839 33.17999 130.872117 33.000546 131.516006 33.026934 C 132.186283 33.048046 132.888228 33.111379 133.621839 33.211657 C 134.35545 33.301379 135.06795 33.380546 135.764617 33.438601 C 136.461284 33.496657 137.136839 33.51249 137.780728 33.491379 C 138.429895 33.46499 138.994617 33.348879 139.474895 33.13249 C 140.050173 32.889712 140.514617 32.541379 140.873506 32.076934 C 141.237673 31.607212 141.422395 31.08999 141.432951 30.530545 C 141.443506 29.960545 141.258784 29.374712 140.873506 28.76249 C 140.493506 28.150268 139.844339 27.564434 138.931284 27.015545 C 138.356006 26.656656 137.759617 26.371656 137.147395 26.155268 C 136.535173 25.938879 135.938784 25.754156 135.347673 25.601101 C 134.761839 25.442767 134.176006 25.284434 133.590172 25.126101 C 133.004339 24.967767 132.444895 24.767212 131.911839 24.529712 C 130.930172 24.102212 130.117395 23.574434 129.468228 22.956934 C 128.819061 22.328878 128.32295 21.642767 127.99045 20.898601 C 127.65795 20.154434 127.452117 19.399712 127.378228 18.634434 C 127.304339 17.863878 127.341283 17.119712 127.489061 16.401934 C 127.731839 15.2936 128.127672 14.327767 128.676561 13.499156 C 129.22545 12.675823 129.89045 11.979156 130.671561 11.419711 C 131.447395 10.849711 132.328783 10.422211 133.315728 10.137211 C 134.297395 9.846933 135.347673 9.704433 136.450728 9.704433 C 137.358506 9.704433 138.261006 9.773045 139.158228 9.904989 C 140.060728 10.036934 140.931562 10.195267 141.776006 10.390545 Z M 161.240451 13.193045 C 161.192951 14.417489 161.150729 15.594434 161.119062 16.723878 C 161.082118 17.848045 161.066285 18.988045 161.066285 20.143878 C 161.087396 23.358045 161.092674 26.345268 161.082118 29.105545 C 161.071562 31.865823 161.161285 34.552212 161.356562 37.164712 C 161.398785 37.88249 161.224618 38.510546 160.828785 39.033046 C 160.432951 39.560824 159.899896 39.898601 159.229618 40.046379 C 158.506562 40.183601 157.836285 40.083324 157.208229 39.740268 C 156.585451 39.391935 156.157951 38.869435 155.915173 38.172768 C 155.767396 37.73999 155.66184 37.196379 155.587951 36.541935 C 155.51934 35.876935 155.477118 35.190823 155.466562 34.483601 C 155.456007 33.776379 155.450729 33.08499 155.450729 32.41999 C 155.450729 31.744434 155.450729 31.179712 155.450729 30.720545 C 155.450729 28.102768 155.461284 25.506101 155.487673 22.930545 C 155.508784 20.349712 155.529896 17.753045 155.556284 15.135267 L 155.556284 13.704989 C 154.959896 13.604711 154.242118 13.514989 153.413507 13.430545 C 152.584895 13.340823 151.803784 13.193045 151.075451 12.981934 C 150.34184 12.765545 149.740173 12.433045 149.270451 11.989711 C 148.806006 11.546378 148.621284 10.902489 148.721562 10.063322 C 148.763784 9.704433 148.885173 9.366656 149.080451 9.055267 C 149.270451 8.743878 149.518506 8.474711 149.81934 8.247767 C 150.114895 8.020822 150.452673 7.851933 150.81684 7.746378 C 151.19684 7.635545 151.587395 7.593322 151.999062 7.614433 L 152.532118 7.730545 C 153.687951 8.110545 154.928229 8.3111 156.258229 8.332211 C 157.588229 8.3586 158.923507 8.274156 160.264062 8.089433 C 161.609896 7.894156 162.913507 7.614433 164.174896 7.244989 C 165.436285 6.870267 166.581563 6.463878 167.610729 6.0311 C 168.571285 5.598322 169.410452 5.513878 170.133507 5.777767 C 170.851285 6.041656 171.352674 6.474433 171.627118 7.0761 C 171.901563 7.677767 171.912118 8.342767 171.658785 9.0711 C 171.41073 9.804711 170.814341 10.411656 169.880174 10.891934 C 169.257396 11.224434 168.555452 11.504156 167.779618 11.736378 C 166.998507 11.963322 166.212118 12.169156 165.415174 12.3486 C 164.623507 12.533323 163.863507 12.691656 163.129896 12.8236 C 162.396285 12.955545 161.768229 13.076934 161.240451 13.193045 Z M 171.099341 15.172211 C 171.146841 16.417767 171.17323 17.642212 171.189063 18.845545 C 171.204896 20.043601 171.236563 21.25749 171.284063 22.481934 C 171.832952 22.481934 172.36073 22.476656 172.867396 22.466101 C 173.368785 22.450267 173.859619 22.455545 174.339896 22.481934 C 174.630174 22.503045 174.909896 22.529434 175.184341 22.550545 C 175.458785 22.576934 175.727952 22.63499 175.991841 22.735267 C 176.641008 22.946378 177.142396 23.331656 177.485452 23.885823 C 177.839063 24.43999 177.949897 25.00999 177.828508 25.611656 C 177.712396 26.234434 177.416841 26.756934 176.952396 27.163323 C 176.482674 27.569712 175.912674 27.780823 175.237119 27.807212 C 174.777952 27.828323 174.329341 27.833601 173.886007 27.823045 C 173.442674 27.81249 172.999341 27.807212 172.540174 27.807212 C 172.344896 27.807212 172.139063 27.81249 171.922674 27.823045 C 171.711563 27.833601 171.479341 27.854712 171.215452 27.875823 C 171.162674 28.788879 171.120452 29.701934 171.099341 30.61499 C 171.072952 31.528046 171.041285 32.435823 170.993785 33.348879 C 171.452952 33.422768 171.991285 33.454434 172.608785 33.454434 C 173.236841 33.454434 173.88073 33.449157 174.535174 33.438601 C 175.194896 33.428046 175.838785 33.401657 176.456285 33.36999 C 177.084341 33.333046 177.617396 33.290823 178.050174 33.243323 C 178.746841 33.190546 179.316841 33.343601 179.754897 33.691934 C 180.19823 34.040268 180.493785 34.46249 180.631008 34.969157 C 180.778786 35.470546 180.741841 35.998323 180.525452 36.557768 C 180.314341 37.106657 179.907952 37.560546 179.306285 37.919435 C 179.042397 38.088324 178.757397 38.230824 178.446008 38.341657 C 178.134619 38.447212 177.833785 38.510546 177.53823 38.536935 C 176.266285 38.605546 174.857119 38.658324 173.31073 38.68999 C 171.764341 38.726935 170.360452 38.758601 169.088507 38.779712 C 168.914341 38.779712 168.750729 38.769157 168.592396 38.742768 C 168.444618 38.721657 168.281007 38.684712 168.112118 38.637212 C 167.251841 38.447212 166.581563 38.061935 166.101285 37.486657 C 165.621007 36.916657 165.388785 36.183046 165.415174 35.291101 C 165.415174 34.019157 165.431007 32.768323 165.467952 31.533323 C 165.499618 30.293045 165.531285 29.042212 165.552396 27.770268 C 165.584063 26.667212 165.610452 25.516656 165.631563 24.318601 C 165.657952 23.115267 165.663229 21.896101 165.652674 20.661101 C 165.642118 19.426101 165.605174 18.212212 165.552396 17.014156 C 165.510174 15.8161 165.425729 14.660267 165.309618 13.551934 C 165.262118 13.050545 165.309618 12.564989 165.44684 12.095267 C 165.594618 11.625545 165.816285 11.224434 166.117118 10.891934 C 166.417952 10.559434 166.782118 10.295545 167.214896 10.100267 C 167.647674 9.904989 168.138507 9.820545 168.692674 9.846933 C 170.487118 9.894434 172.112674 9.936656 173.569341 9.978878 C 175.02073 10.010545 176.451008 10.079156 177.865452 10.168878 C 178.277119 10.216378 178.667674 10.284989 179.052952 10.374711 C 179.43823 10.453878 179.786563 10.596378 180.097952 10.802211 C 180.409341 11.008045 180.657397 11.266656 180.852674 11.578045 C 181.047952 11.889434 181.153508 12.285267 181.174619 12.765545 C 181.201008 13.388323 181.021563 13.947767 180.631008 14.443878 C 180.251008 14.929434 179.712674 15.230267 179.016008 15.356934 C 178.34573 15.473045 177.68073 15.520545 177.021008 15.494156 C 176.361285 15.473045 175.696285 15.425545 175.036563 15.356934 C 174.376841 15.283045 173.722396 15.224989 173.057396 15.177489 C 172.402952 15.124711 171.748507 15.124711 171.099341 15.172211 Z M 196.870731 30.863045 C 195.477397 30.720545 194.115731 30.667768 192.78573 30.704712 C 191.45573 30.741657 190.104619 30.915823 188.732397 31.221934 C 188.711286 31.396101 188.690175 31.559712 188.679619 31.718046 C 188.669064 31.865823 188.663786 32.029434 188.663786 32.198323 C 188.684897 33.058601 188.716564 33.918879 188.74823 34.773879 C 188.785175 35.623601 188.816841 36.478601 188.837953 37.349435 C 188.864341 38.304712 188.547675 39.048879 187.898508 39.587213 C 187.254619 40.136101 186.46823 40.320824 185.534063 40.151935 C 184.932397 40.056935 184.420452 39.793046 183.99823 39.360268 C 183.581286 38.92749 183.33323 38.378601 183.259341 37.708324 C 183.211841 37.154157 183.169619 36.578879 183.137952 35.993046 C 183.101008 35.407212 183.085174 34.826657 183.085174 34.246101 C 183.037674 32.330268 183.027119 30.419712 183.04823 28.509156 C 183.069341 26.598601 183.217119 24.67749 183.481008 22.735267 C 183.623508 21.626934 183.897952 20.439434 184.304341 19.167489 C 184.716008 17.895545 185.238508 16.692212 185.866564 15.557489 C 186.505175 14.417489 187.265175 13.404156 188.136008 12.517489 C 189.012119 11.625545 190.004341 10.997489 191.107397 10.6386 C 191.972953 10.348322 192.859619 10.205822 193.767397 10.205822 C 194.680453 10.205822 195.561842 10.358878 196.411564 10.664989 C 197.266564 10.960545 198.052953 11.409156 198.776008 12.005545 C 199.499064 12.607211 200.095453 13.351378 200.575731 14.238045 C 201.21962 15.462489 201.689342 16.7186 201.974342 18.001101 C 202.269898 19.283601 202.449342 20.608323 202.517953 21.980545 C 202.634064 24.445267 202.660453 26.894156 202.591842 29.316657 C 202.517953 31.744434 202.422953 34.17749 202.301564 36.626379 C 202.227675 38.162212 201.536286 39.11749 200.216842 39.502768 C 199.736564 39.645268 199.277397 39.676935 198.84462 39.587213 C 198.411842 39.508046 198.03712 39.339157 197.715175 39.085824 C 197.393231 38.837768 197.13462 38.515824 196.939342 38.11999 C 196.744064 37.724157 196.649064 37.286101 196.649064 36.805824 C 196.675453 36.014157 196.701842 35.227768 196.738786 34.446657 C 196.781008 33.670823 196.823231 32.884434 196.870731 32.092768 Z M 196.939342 25.363601 C 196.986842 25.215823 197.007953 25.083879 197.007953 24.967767 C 196.939342 23.811934 196.876008 22.693045 196.823231 21.600545 C 196.781008 20.508045 196.585731 19.441934 196.253231 18.412767 C 195.873231 17.2886 195.371842 16.5761 194.743786 16.275267 C 194.121008 15.974434 193.466564 16.0061 192.78573 16.380823 C 192.099619 16.750267 191.439897 17.415267 190.817119 18.375823 C 190.194341 19.336378 189.703508 20.502767 189.349897 21.864434 C 189.03323 23.020267 188.874897 24.265823 188.874897 25.611656 C 190.241841 25.564156 191.587675 25.521934 192.907119 25.48499 C 194.226564 25.453323 195.567119 25.411101 196.939342 25.363601 Z M 216.905176 21.690267 C 217.385454 20.613601 217.918509 19.389156 218.504343 18.027489 C 219.095454 16.655267 219.702398 15.330545 220.325176 14.053323 C 220.858232 13.045267 221.444065 12.269434 222.093232 11.715267 C 222.742398 11.166378 223.375732 10.765267 223.99851 10.511934 C 224.626565 10.263878 225.212398 10.137211 225.761287 10.137211 C 226.315454 10.137211 226.769343 10.2111 227.13351 10.3536 C 227.803787 10.617489 228.326287 11.013322 228.706288 11.5411 C 229.091565 12.068878 229.381843 12.944989 229.577121 14.169434 C 229.862121 15.969156 230.03101 17.8111 230.07851 19.695267 C 230.131288 21.574156 230.094343 23.437212 229.972954 25.273879 C 229.856843 27.110545 229.677399 28.889157 229.434621 30.61499 C 229.197121 32.346101 228.943788 33.976935 228.679899 35.512768 C 228.51101 36.473323 228.136287 37.21749 227.555732 37.745268 C 226.980454 38.273046 226.310176 38.473601 225.544898 38.352212 C 224.800732 38.230824 224.18851 37.83499 223.708232 37.164712 C 223.233232 36.489157 223.053787 35.64999 223.169898 34.641935 C 223.507676 31.960823 223.797954 29.242768 224.051287 26.498323 C 224.304621 23.748601 224.28351 20.983045 223.99851 18.201656 C 223.159343 20.048878 222.372954 21.906656 221.644621 23.780267 C 220.911009 25.648601 220.135176 27.506379 219.322398 29.353601 C 219.084898 29.90249 218.752398 30.298323 218.330176 30.541101 C 217.907954 30.778601 217.46462 30.873601 216.994898 30.826101 C 216.530454 30.783879 216.071287 30.588601 215.617398 30.256101 C 215.158231 29.918323 214.772954 29.438045 214.461565 28.815268 C 214.319065 28.530268 214.134342 28.118601 213.917954 27.57499 C 213.706842 27.031379 213.485176 26.445545 213.242398 25.812212 C 213.004898 25.173601 212.76212 24.524434 212.52462 23.86999 C 212.281842 23.20499 212.04962 22.619156 211.817398 22.101934 C 211.590453 21.58999 211.379342 21.173045 211.189342 20.866934 C 210.994065 20.550267 210.851565 20.428878 210.756565 20.502767 C 210.540176 20.576656 210.397676 20.903878 210.323787 21.49499 C 210.255176 22.080823 210.239342 22.809156 210.271009 23.674712 C 210.307953 24.53499 210.381842 25.48499 210.503231 26.514156 C 210.62462 27.543323 210.761842 28.556657 210.914898 29.554157 C 211.073231 30.551657 211.226287 31.480546 211.379342 32.346101 C 211.537676 33.211657 211.690731 33.89249 211.838509 34.393879 C 212.076009 35.280546 212.060176 36.103879 211.785731 36.874435 C 211.511287 37.639712 211.104898 38.193879 210.571842 38.536935 C 209.927953 38.938046 209.252398 39.043601 208.539898 38.843046 C 207.832676 38.637212 207.278509 38.151657 206.87212 37.381101 C 206.608231 36.826935 206.391842 36.177768 206.222953 35.433601 C 204.998509 29.485545 204.671287 23.743323 205.246564 18.201656 C 205.346842 17.188323 205.600175 16.280545 206.001287 15.478323 C 206.412953 14.6761 206.898509 14.016378 207.463231 13.499156 C 208.022676 12.987211 208.645453 12.6336 209.331564 12.438322 C 210.017676 12.243045 210.693231 12.237767 211.363509 12.422489 C 212.033787 12.601934 212.677676 12.992489 213.28462 13.599434 C 213.90212 14.195823 214.42462 15.019156 214.857398 16.074712 C 215.269065 17.061656 215.649065 18.059156 215.99212 19.083045 C 216.340454 20.101656 216.641287 20.97249 216.905176 21.690267 Z M 251.379622 15.172211 C 251.427122 16.417767 251.458788 17.642212 251.469344 18.845545 C 251.485177 20.043601 251.516844 21.25749 251.564344 22.481934 C 252.113233 22.481934 252.641011 22.476656 253.147677 22.466101 C 253.649066 22.450267 254.1399 22.455545 254.620177 22.481934 C 254.910455 22.503045 255.190178 22.529434 255.464622 22.550545 C 255.739066 22.576934 256.008233 22.63499 256.272122 22.735267 C 256.926566 22.946378 257.422678 23.331656 257.765733 23.885823 C 258.119344 24.43999 258.235455 25.00999 258.108789 25.611656 C 257.992678 26.234434 257.7024 26.756934 257.232678 27.163323 C 256.762955 27.569712 256.192955 27.780823 255.5174 27.807212 C 255.063511 27.828323 254.609622 27.833601 254.166289 27.823045 C 253.728233 27.81249 253.279622 27.807212 252.820455 27.807212 C 252.625177 27.807212 252.424622 27.81249 252.208233 27.823045 C 251.997122 27.833601 251.759622 27.854712 251.495733 27.875823 C 251.442955 28.788879 251.406011 29.701934 251.379622 30.61499 C 251.358511 31.528046 251.321566 32.435823 251.274066 33.348879 C 251.733233 33.422768 252.271566 33.454434 252.889066 33.454434 C 253.517122 33.454434 254.161011 33.449157 254.815455 33.438601 C 255.475178 33.428046 256.119066 33.401657 256.741844 33.36999 C 257.364622 33.333046 257.897678 33.290823 258.330455 33.243323 C 259.027122 33.190546 259.597122 33.343601 260.035178 33.691934 C 260.478511 34.040268 260.774067 34.46249 260.911289 34.969157 C 261.059067 35.470546 261.0274 35.998323 260.805733 36.557768 C 260.594622 37.106657 260.188233 37.560546 259.586567 37.919435 C 259.322678 38.088324 259.037678 38.230824 258.726289 38.341657 C 258.4149 38.447212 258.114067 38.510546 257.818511 38.536935 C 256.551844 38.605546 255.142677 38.658324 253.596289 38.68999 C 252.0499 38.726935 250.640733 38.758601 249.368788 38.779712 C 249.199899 38.779712 249.036288 38.769157 248.877955 38.742768 C 248.724899 38.721657 248.561288 38.684712 248.392399 38.637212 C 247.532122 38.447212 246.861844 38.061935 246.381566 37.486657 C 245.901288 36.916657 245.674344 36.183046 245.695455 35.291101 C 245.695455 34.019157 245.711288 32.768323 245.748233 31.533323 C 245.785177 30.293045 245.811566 29.042212 245.837955 27.770268 C 245.864344 26.667212 245.890733 25.516656 245.917122 24.318601 C 245.938233 23.115267 245.94351 21.896101 245.932955 20.661101 C 245.922399 19.426101 245.890733 18.212212 245.837955 17.014156 C 245.790455 15.8161 245.70601 14.660267 245.589899 13.551934 C 245.542399 13.050545 245.589899 12.564989 245.732399 12.095267 C 245.874899 11.625545 246.101844 11.224434 246.397399 10.891934 C 246.698233 10.559434 247.062399 10.295545 247.495177 10.100267 C 247.927955 9.904989 248.424066 9.820545 248.972955 9.846933 C 250.772677 9.894434 252.398233 9.936656 253.849622 9.978878 C 255.301011 10.010545 256.736566 10.079156 258.145733 10.168878 C 258.5574 10.216378 258.953233 10.284989 259.333233 10.374711 C 259.718511 10.453878 260.066844 10.596378 260.378233 10.802211 C 260.689622 11.008045 260.937678 11.266656 261.132956 11.578045 C 261.328233 11.889434 261.433789 12.285267 261.460178 12.765545 C 261.481289 13.388323 261.301844 13.947767 260.911289 14.443878 C 260.531289 14.929434 259.992955 15.230267 259.296289 15.356934 C 258.631289 15.473045 257.966289 15.520545 257.301289 15.494156 C 256.641566 15.473045 255.976566 15.425545 255.316844 15.356934 C 254.6624 15.283045 254.002677 15.224989 253.337677 15.177489 C 252.683233 15.124711 252.028788 15.124711 251.379622 15.172211 Z M 271.677956 30.256101 C 272.638512 27.738601 273.525178 25.231656 274.337956 22.735267 C 275.161289 20.238878 275.974067 17.721378 276.792123 15.172211 C 277.293512 13.588878 278.312123 12.860545 279.847956 12.981934 C 280.660734 13.029434 281.309901 13.356656 281.790179 13.958323 C 282.270456 14.554711 282.449901 15.261934 282.33379 16.074712 C 282.307401 16.190823 282.28629 16.301656 282.275734 16.401934 C 282.259901 16.496934 282.233512 16.602489 282.186012 16.723878 C 281.373234 19.146378 280.571012 21.547767 279.779345 23.938601 C 278.987678 26.324156 278.169623 28.71499 277.325178 31.116379 C 277.10879 31.739157 276.87129 32.351379 276.607401 32.953046 C 276.343512 33.554712 276.042678 34.124712 275.710178 34.678879 C 275.229901 35.544435 274.659901 36.209435 273.994901 36.679157 C 273.340456 37.148879 272.659623 37.402212 271.947123 37.433879 C 271.2399 37.470824 270.537956 37.296657 269.841289 36.916657 C 269.144623 36.531379 268.5324 35.919157 268.004622 35.07999 C 267.281567 33.950546 266.653511 32.726101 266.115178 31.406657 C 265.576845 30.081934 265.1124 28.720268 264.727122 27.321656 C 264.347122 25.917768 264.030456 24.498045 263.777122 23.06249 C 263.523789 21.621656 263.328511 20.212489 263.180733 18.845545 C 263.112122 18.317767 263.175456 17.842767 263.381289 17.4311 C 263.587122 17.008878 263.856289 16.665823 264.188789 16.401934 C 264.531845 16.138045 264.917122 15.963878 265.360456 15.884712 C 265.803789 15.794989 266.231289 15.794989 266.642956 15.889989 C 267.191845 16.037767 267.645734 16.285823 268.004622 16.639434 C 268.368789 16.982489 268.585178 17.441656 268.653789 18.016934 C 268.822678 19.193878 268.991567 20.312767 269.155178 21.363045 C 269.324067 22.418601 269.519345 23.437212 269.735734 24.424156 C 269.952123 25.405823 270.210734 26.376934 270.506289 27.342768 C 270.807123 28.303323 271.197678 29.274434 271.677956 30.256101 Z M 289.812401 30.224434 C 289.907401 30.820823 290.17129 31.306379 290.604068 31.681101 C 291.036846 32.050546 291.54879 32.309157 292.134623 32.451657 C 292.725735 32.594157 293.343235 32.631101 293.987124 32.557212 C 294.63629 32.488601 295.248513 32.282768 295.82379 31.94499 C 296.235457 31.702212 296.641846 31.533323 297.042957 31.427768 C 297.454624 31.316934 297.897957 31.322212 298.378235 31.443601 C 298.884902 31.586101 299.296568 31.818323 299.618513 32.145546 C 299.940457 32.46749 300.167402 32.836934 300.294068 33.243323 C 300.43129 33.649712 300.447124 34.071935 300.341568 34.520546 C 300.236013 34.963879 299.998513 35.375546 299.639624 35.755546 C 299.111846 36.31499 298.515457 36.753046 297.855735 37.07499 C 297.196013 37.396935 296.483513 37.634435 295.718235 37.776935 C 293.818235 38.135824 292.108235 38.098879 290.588235 37.671379 C 289.062957 37.238601 287.764623 36.526101 286.693234 35.528601 C 285.627123 34.531101 284.809068 33.333046 284.23379 31.934434 C 283.658512 30.530545 283.373512 29.031657 283.373512 27.443045 C 283.373512 25.91249 283.600456 24.466379 284.049068 23.115267 C 284.508234 21.753601 285.157401 20.571378 286.007123 19.563323 C 286.862123 18.555267 287.896568 17.742489 289.110457 17.119712 C 290.324346 16.496934 291.686012 16.132767 293.195457 16.043045 C 294.926568 15.942767 296.372679 16.217212 297.544346 16.866378 C 298.72129 17.515545 299.613235 18.365267 300.209624 19.404989 C 300.811291 20.449989 301.133235 21.600545 301.164902 22.856656 C 301.201846 24.118045 300.959068 25.289712 300.447124 26.371656 C 299.929902 27.453601 299.127679 28.356101 298.040457 29.089712 C 296.947957 29.812768 295.58629 30.192768 293.950179 30.224434 C 293.301012 30.245545 292.64129 30.250823 291.965735 30.240268 C 291.300735 30.229712 290.582957 30.224434 289.812401 30.224434 Z M 289.453512 24.81999 C 290.02879 24.86749 290.588235 24.904434 291.142401 24.930823 C 291.696568 24.957212 292.250735 24.967767 292.799624 24.967767 C 293.712679 24.967767 294.425179 24.77249 294.926568 24.387212 C 295.433235 24.001934 295.712957 23.58499 295.771013 23.131101 C 295.829068 22.671934 295.665457 22.25499 295.280179 21.87499 C 294.900179 21.489712 294.277401 21.294434 293.417124 21.294434 C 292.957957 21.294434 292.514623 21.389434 292.081846 21.584712 C 291.649068 21.774712 291.258512 22.028045 290.910179 22.360545 C 290.567123 22.68249 290.26629 23.057212 290.007679 23.48999 C 289.754346 23.91749 289.569623 24.360823 289.453512 24.81999 Z M 309.139624 21.653323 C 309.714902 20.692767 310.427402 19.811378 311.277124 19.009156 C 312.132124 18.201656 313.076847 17.568323 314.106013 17.103878 C 315.13518 16.634156 316.243513 16.391378 317.425736 16.364989 C 318.613236 16.343878 319.832402 16.618323 321.083236 17.1936 C 322.11768 17.673878 322.956847 18.338878 323.606014 19.193878 C 324.25518 20.043601 324.746014 21.056934 325.078514 22.228601 C 325.368792 23.310545 325.516569 24.397767 325.527125 25.48499 C 325.53768 26.57749 325.463792 27.664712 325.310736 28.746657 C 325.15768 29.823323 324.936014 30.889434 324.651014 31.94499 C 324.360736 33.000546 324.075736 34.019157 323.790736 35.000823 C 323.526847 35.871657 323.057125 36.499712 322.381569 36.900824 C 321.706014 37.291379 320.988236 37.354712 320.222958 37.090824 C 319.499902 36.853324 318.972125 36.436379 318.639625 35.834712 C 318.307125 35.233046 318.206847 34.515268 318.349347 33.676101 C 318.396847 33.264434 318.470736 32.868601 318.576291 32.488601 C 318.687125 32.103323 318.79268 31.702212 318.892958 31.295823 C 319.056569 30.525268 319.22018 29.781101 319.378514 29.052768 C 319.536847 28.319156 319.663514 27.569712 319.753236 26.793879 C 319.927402 25.310823 319.816569 24.223601 319.431291 23.526934 C 319.040736 22.830267 318.523513 22.455545 317.874347 22.413323 C 317.230458 22.365823 316.517958 22.608601 315.742124 23.146934 C 314.961013 23.685267 314.259069 24.450545 313.641569 25.432212 C 313.203513 26.128879 312.85518 26.830823 312.596569 27.543323 C 312.33268 28.245268 312.132124 28.963045 311.994902 29.696657 C 311.868235 30.42499 311.783791 31.163879 311.741569 31.908046 C 311.704624 32.652212 311.688791 33.396379 311.688791 34.140546 C 311.709902 35.053601 311.504069 35.808323 311.055458 36.40999 C 310.617402 37.006379 310.026291 37.365268 309.282124 37.486657 C 308.511569 37.608046 307.825457 37.449712 307.207957 37.022212 C 306.601013 36.589435 306.199902 35.913879 306.004624 35.000823 C 305.693235 33.591657 305.408235 32.177212 305.144346 30.75749 C 304.880457 29.343045 304.59018 27.912768 304.284068 26.477212 C 304.06768 25.469156 303.846013 24.476934 303.629624 23.48999 C 303.413235 22.508323 303.186291 21.510823 302.948791 20.502767 C 302.727124 19.589712 302.769346 18.776934 303.070179 18.069712 C 303.376291 17.362489 303.909346 16.876934 304.674624 16.613045 C 305.44518 16.349156 306.168235 16.401934 306.849069 16.776656 C 307.53518 17.1461 308.031291 17.753045 308.34268 18.597489 C 308.511569 19.072489 308.648791 19.563323 308.754346 20.075267 C 308.86518 20.576656 308.991846 21.104434 309.139624 21.653323 Z M 334.288236 26.039156 C 333.860736 26.039156 333.459625 26.049712 333.084903 26.065545 C 332.715459 26.076101 332.335458 26.070823 331.950181 26.039156 C 331.686292 26.018045 331.427681 25.991656 331.179625 25.970545 C 330.926292 25.944156 330.678236 25.896656 330.440736 25.828045 C 329.812681 25.611656 329.348236 25.263323 329.052681 24.783045 C 328.751847 24.302767 328.625181 23.764434 328.672681 23.168045 C 328.751847 22.518878 328.968236 22.022767 329.321847 21.690267 C 329.680736 21.35249 330.113514 21.11499 330.614903 20.988323 C 331.12157 20.851101 331.654625 20.777212 332.21407 20.766656 C 332.78407 20.756101 333.296014 20.724434 333.749903 20.682212 C 333.892403 20.682212 334.040181 20.671656 334.198514 20.661101 C 334.356847 20.650545 334.531014 20.634712 334.721014 20.608323 C 334.911014 18.882489 335.106292 17.198878 335.296292 15.557489 C 335.49157 13.910823 335.707959 12.269434 335.950736 10.6386 C 336.019348 10.184711 336.161848 9.7836 336.378236 9.424711 C 336.594625 9.060545 336.86907 8.770267 337.206848 8.553878 C 337.539348 8.337489 337.903514 8.200267 338.304625 8.142211 C 338.700459 8.078878 339.117403 8.105267 339.544903 8.226656 C 340.19407 8.421933 340.695459 8.764989 341.054348 9.255822 C 341.418514 9.751933 341.561014 10.369434 341.481848 11.1136 C 341.365737 12.718045 341.202126 14.285545 340.985737 15.821378 C 340.76407 17.357212 340.57407 18.903601 340.410459 20.471101 C 340.748237 20.471101 341.04907 20.460545 341.323514 20.449989 C 341.603237 20.434156 341.872403 20.439434 342.136292 20.471101 C 342.56907 20.492212 342.991292 20.550267 343.408237 20.645267 C 343.830459 20.740267 344.199903 20.888045 344.521848 21.093878 C 344.854348 21.299712 345.118237 21.563601 345.313515 21.890823 C 345.519348 22.212767 345.635459 22.613878 345.667126 23.094156 C 345.688237 23.648323 345.535181 24.144434 345.207959 24.587767 C 344.886015 25.031101 344.453237 25.347767 343.89907 25.537767 C 343.66157 25.632767 343.418792 25.696101 343.181292 25.72249 C 342.938514 25.748879 342.701014 25.76999 342.458237 25.791101 C 342.072959 25.81749 341.682403 25.822767 341.281292 25.812212 C 340.890737 25.801656 340.468514 25.791101 340.014625 25.791101 C 339.961848 27.136934 339.872125 28.535545 339.734903 30.002768 C 339.608237 31.464712 339.555459 33.195823 339.57657 35.185546 C 339.57657 35.882212 339.455181 36.489157 339.217681 37.006379 C 338.974903 37.518324 338.547403 37.898324 337.924625 38.141101 C 337.349348 38.35749 336.816292 38.410268 336.325459 38.304712 C 335.834625 38.193879 335.412403 37.97749 335.058792 37.655546 C 334.715736 37.328324 334.441292 36.916657 334.235459 36.425823 C 334.029625 35.93499 333.929347 35.433601 333.929347 34.932212 C 333.950459 33.08499 334.003236 31.46999 334.087681 30.081934 C 334.172125 28.688601 334.240736 27.342768 334.288236 26.039156 Z M 334.288236 26.039156 " stroke="#04009a" stroke-width="2.699992" stroke-opacity="1" stroke-miterlimit="4"/></g><g fill="#3edbf0" fill-opacity="1"><g transform="translate(3.833141, 29.901323)"><g><path d="M 9.53125 -12.8125 C 9.882812 -13.613281 10.28125 -14.519531 10.71875 -15.53125 C 11.15625 -16.539062 11.601562 -17.519531 12.0625 -18.46875 C 12.457031 -19.207031 12.894531 -19.78125 13.375 -20.1875 C 13.851562 -20.601562 14.320312 -20.898438 14.78125 -21.078125 C 15.25 -21.265625 15.6875 -21.359375 16.09375 -21.359375 C 16.5 -21.359375 16.835938 -21.304688 17.109375 -21.203125 C 17.597656 -21.003906 17.984375 -20.707031 18.265625 -20.3125 C 18.554688 -19.925781 18.773438 -19.28125 18.921875 -18.375 C 19.128906 -17.050781 19.25 -15.691406 19.28125 -14.296875 C 19.320312 -12.898438 19.296875 -11.519531 19.203125 -10.15625 C 19.117188 -8.800781 18.988281 -7.484375 18.8125 -6.203125 C 18.632812 -4.929688 18.445312 -3.722656 18.25 -2.578125 C 18.125 -1.867188 17.847656 -1.316406 17.421875 -0.921875 C 16.992188 -0.535156 16.5 -0.390625 15.9375 -0.484375 C 15.382812 -0.566406 14.929688 -0.859375 14.578125 -1.359375 C 14.222656 -1.859375 14.085938 -2.476562 14.171875 -3.21875 C 14.421875 -5.207031 14.640625 -7.21875 14.828125 -9.25 C 15.015625 -11.289062 15 -13.335938 14.78125 -15.390625 C 14.164062 -14.023438 13.585938 -12.648438 13.046875 -11.265625 C 12.503906 -9.878906 11.929688 -8.503906 11.328125 -7.140625 C 11.148438 -6.734375 10.90625 -6.441406 10.59375 -6.265625 C 10.28125 -6.085938 9.945312 -6.015625 9.59375 -6.046875 C 9.25 -6.078125 8.910156 -6.21875 8.578125 -6.46875 C 8.242188 -6.71875 7.957031 -7.078125 7.71875 -7.546875 C 7.613281 -7.753906 7.484375 -8.054688 7.328125 -8.453125 C 7.171875 -8.859375 7 -9.296875 6.8125 -9.765625 C 6.632812 -10.234375 6.457031 -10.710938 6.28125 -11.203125 C 6.101562 -11.691406 5.929688 -12.125 5.765625 -12.5 C 5.597656 -12.882812 5.441406 -13.191406 5.296875 -13.421875 C 5.160156 -13.648438 5.054688 -13.738281 4.984375 -13.6875 C 4.816406 -13.632812 4.707031 -13.390625 4.65625 -12.953125 C 4.601562 -12.523438 4.585938 -11.988281 4.609375 -11.34375 C 4.640625 -10.707031 4.695312 -10.003906 4.78125 -9.234375 C 4.875 -8.472656 4.976562 -7.722656 5.09375 -6.984375 C 5.21875 -6.253906 5.335938 -5.566406 5.453125 -4.921875 C 5.566406 -4.285156 5.675781 -3.78125 5.78125 -3.40625 C 5.957031 -2.75 5.941406 -2.132812 5.734375 -1.5625 C 5.535156 -1 5.238281 -0.59375 4.84375 -0.34375 C 4.363281 -0.0390625 3.863281 0.0351562 3.34375 -0.109375 C 2.820312 -0.265625 2.410156 -0.628906 2.109375 -1.203125 C 1.910156 -1.609375 1.75 -2.085938 1.625 -2.640625 C 0.71875 -7.046875 0.476562 -11.296875 0.90625 -15.390625 C 0.976562 -16.140625 1.164062 -16.8125 1.46875 -17.40625 C 1.769531 -18 2.128906 -18.488281 2.546875 -18.875 C 2.960938 -19.257812 3.421875 -19.519531 3.921875 -19.65625 C 4.429688 -19.800781 4.9375 -19.804688 5.4375 -19.671875 C 5.9375 -19.535156 6.410156 -19.242188 6.859375 -18.796875 C 7.316406 -18.359375 7.703125 -17.75 8.015625 -16.96875 C 8.316406 -16.238281 8.597656 -15.492188 8.859375 -14.734375 C 9.117188 -13.984375 9.34375 -13.34375 9.53125 -12.8125 Z M 9.53125 -12.8125 "/></g></g></g><g fill="#3edbf0" fill-opacity="1"><g transform="translate(23.941168, 29.901323)"><g><path d="M 9.1875 -10.015625 C 9.1875 -11.203125 9.023438 -12.097656 8.703125 -12.703125 C 8.390625 -13.304688 7.992188 -13.671875 7.515625 -13.796875 C 7.046875 -13.921875 6.546875 -13.816406 6.015625 -13.484375 C 5.484375 -13.160156 5.015625 -12.65625 4.609375 -11.96875 C 4.304688 -11.445312 3.878906 -11.117188 3.328125 -10.984375 C 2.773438 -10.859375 2.242188 -10.945312 1.734375 -11.25 C 1.210938 -11.539062 0.882812 -11.941406 0.75 -12.453125 C 0.625 -12.972656 0.71875 -13.503906 1.03125 -14.046875 C 1.375 -14.585938 1.769531 -15.070312 2.21875 -15.5 C 3.101562 -16.320312 4.046875 -16.914062 5.046875 -17.28125 C 6.046875 -17.644531 7.007812 -17.789062 7.9375 -17.71875 C 8.875 -17.644531 9.738281 -17.347656 10.53125 -16.828125 C 11.320312 -16.316406 11.953125 -15.597656 12.421875 -14.671875 C 12.703125 -14.128906 12.910156 -13.507812 13.046875 -12.8125 C 13.191406 -12.125 13.296875 -11.414062 13.359375 -10.6875 C 13.421875 -9.957031 13.46875 -9.234375 13.5 -8.515625 C 13.539062 -7.804688 13.585938 -7.148438 13.640625 -6.546875 C 13.691406 -5.835938 13.722656 -5.175781 13.734375 -4.5625 C 13.742188 -3.957031 13.632812 -3.328125 13.40625 -2.671875 C 13.238281 -2.222656 12.929688 -1.894531 12.484375 -1.6875 C 12.046875 -1.488281 11.597656 -1.453125 11.140625 -1.578125 C 10.867188 -1.640625 10.625 -1.648438 10.40625 -1.609375 C 10.195312 -1.566406 9.96875 -1.492188 9.71875 -1.390625 C 8.863281 -0.941406 7.992188 -0.648438 7.109375 -0.515625 C 6.222656 -0.378906 5.300781 -0.410156 4.34375 -0.609375 C 3.539062 -0.773438 2.878906 -1.070312 2.359375 -1.5 C 1.847656 -1.9375 1.46875 -2.4375 1.21875 -3 C 0.976562 -3.570312 0.859375 -4.179688 0.859375 -4.828125 C 0.867188 -5.484375 0.988281 -6.113281 1.21875 -6.71875 C 1.457031 -7.332031 1.804688 -7.894531 2.265625 -8.40625 C 2.722656 -8.914062 3.289062 -9.320312 3.96875 -9.625 C 4.769531 -9.976562 5.625 -10.164062 6.53125 -10.1875 C 7.445312 -10.21875 8.332031 -10.160156 9.1875 -10.015625 Z M 8.984375 -5.546875 C 8.804688 -5.910156 8.507812 -6.175781 8.09375 -6.34375 C 7.6875 -6.519531 7.269531 -6.597656 6.84375 -6.578125 C 6.414062 -6.554688 6.03125 -6.441406 5.6875 -6.234375 C 5.34375 -6.023438 5.148438 -5.710938 5.109375 -5.296875 C 5.078125 -4.960938 5.253906 -4.6875 5.640625 -4.46875 C 6.035156 -4.257812 6.613281 -4.269531 7.375 -4.5 C 7.675781 -4.59375 7.96875 -4.722656 8.25 -4.890625 C 8.539062 -5.054688 8.785156 -5.273438 8.984375 -5.546875 Z M 8.984375 -5.546875 "/></g></g></g><g fill="#3edbf0" fill-opacity="1"><g transform="translate(38.589404, 29.901323)"><g><path d="M 4.6875 -14.25 C 5.5625 -15.175781 6.441406 -15.832031 7.328125 -16.21875 C 8.210938 -16.613281 9.054688 -16.785156 9.859375 -16.734375 C 10.660156 -16.691406 11.390625 -16.457031 12.046875 -16.03125 C 12.710938 -15.601562 13.269531 -15.023438 13.71875 -14.296875 C 14.164062 -13.578125 14.472656 -12.734375 14.640625 -11.765625 C 14.804688 -10.796875 14.785156 -9.75 14.578125 -8.625 C 14.503906 -8.257812 14.347656 -7.941406 14.109375 -7.671875 C 13.878906 -7.398438 13.609375 -7.203125 13.296875 -7.078125 C 12.992188 -6.960938 12.664062 -6.910156 12.3125 -6.921875 C 11.957031 -6.941406 11.628906 -7.054688 11.328125 -7.265625 C 10.671875 -7.710938 10.382812 -8.328125 10.46875 -9.109375 C 10.519531 -9.710938 10.484375 -10.289062 10.359375 -10.84375 C 10.234375 -11.394531 10.03125 -11.832031 9.75 -12.15625 C 9.46875 -12.488281 9.097656 -12.664062 8.640625 -12.6875 C 8.191406 -12.71875 7.65625 -12.507812 7.03125 -12.0625 C 6.570312 -11.707031 6.242188 -11.195312 6.046875 -10.53125 C 5.847656 -9.863281 5.734375 -9.140625 5.703125 -8.359375 C 5.679688 -7.578125 5.726562 -6.800781 5.84375 -6.03125 C 5.957031 -5.257812 6.085938 -4.609375 6.234375 -4.078125 C 6.304688 -3.804688 6.359375 -3.53125 6.390625 -3.25 C 6.429688 -2.695312 6.320312 -2.222656 6.0625 -1.828125 C 5.800781 -1.441406 5.421875 -1.175781 4.921875 -1.03125 C 4.429688 -0.894531 3.921875 -0.898438 3.390625 -1.046875 C 2.867188 -1.203125 2.503906 -1.507812 2.296875 -1.96875 C 2.179688 -2.195312 2.101562 -2.472656 2.0625 -2.796875 C 2.019531 -3.117188 1.960938 -3.410156 1.890625 -3.671875 C 1.429688 -5.503906 1.113281 -7.332031 0.9375 -9.15625 C 0.757812 -10.988281 0.582031 -12.820312 0.40625 -14.65625 C 0.34375 -15.238281 0.488281 -15.738281 0.84375 -16.15625 C 1.207031 -16.570312 1.679688 -16.816406 2.265625 -16.890625 C 2.796875 -16.960938 3.28125 -16.832031 3.71875 -16.5 C 4.15625 -16.175781 4.425781 -15.726562 4.53125 -15.15625 C 4.550781 -15.019531 4.570312 -14.882812 4.59375 -14.75 C 4.625 -14.613281 4.65625 -14.445312 4.6875 -14.25 Z M 4.6875 -14.25 "/></g></g></g><g fill="#3edbf0" fill-opacity="1"><g transform="translate(54.569302, 29.901323)"><g><path d="M 0.75 -8.3125 C 0.625 -9.238281 0.679688 -10.160156 0.921875 -11.078125 C 1.160156 -12.003906 1.539062 -12.863281 2.0625 -13.65625 C 2.582031 -14.457031 3.21875 -15.148438 3.96875 -15.734375 C 4.726562 -16.328125 5.554688 -16.753906 6.453125 -17.015625 C 7.210938 -17.253906 7.960938 -17.359375 8.703125 -17.328125 C 9.453125 -17.304688 10.203125 -17.175781 10.953125 -16.9375 C 11.660156 -16.726562 12.34375 -16.445312 13 -16.09375 C 13.457031 -15.863281 13.78125 -15.539062 13.96875 -15.125 C 14.15625 -14.71875 14.1875 -14.300781 14.0625 -13.875 C 13.925781 -13.4375 13.671875 -13.082031 13.296875 -12.8125 C 12.921875 -12.550781 12.476562 -12.4375 11.96875 -12.46875 C 11.71875 -12.5 11.472656 -12.554688 11.234375 -12.640625 C 11.003906 -12.722656 10.773438 -12.804688 10.546875 -12.890625 C 9.566406 -13.285156 8.640625 -13.390625 7.765625 -13.203125 C 6.890625 -13.015625 6.179688 -12.507812 5.640625 -11.6875 C 5.273438 -11.125 5.039062 -10.503906 4.9375 -9.828125 C 4.84375 -9.148438 4.898438 -8.484375 5.109375 -7.828125 C 5.328125 -7.148438 5.679688 -6.613281 6.171875 -6.21875 C 6.660156 -5.820312 7.207031 -5.535156 7.8125 -5.359375 C 8.414062 -5.179688 9.046875 -5.09375 9.703125 -5.09375 C 10.359375 -5.101562 10.96875 -5.179688 11.53125 -5.328125 C 11.726562 -5.378906 11.929688 -5.398438 12.140625 -5.390625 C 12.359375 -5.378906 12.566406 -5.347656 12.765625 -5.296875 C 13.523438 -5.085938 13.976562 -4.570312 14.125 -3.75 C 14.175781 -3.382812 14.128906 -3.050781 13.984375 -2.75 C 13.835938 -2.457031 13.625 -2.1875 13.34375 -1.9375 C 13.007812 -1.675781 12.648438 -1.503906 12.265625 -1.421875 C 11.878906 -1.347656 11.484375 -1.289062 11.078125 -1.25 C 10.742188 -1.21875 10.410156 -1.203125 10.078125 -1.203125 C 9.753906 -1.203125 9.429688 -1.207031 9.109375 -1.21875 C 8.003906 -1.28125 6.976562 -1.476562 6.03125 -1.8125 C 5.082031 -2.144531 4.238281 -2.613281 3.5 -3.21875 C 2.757812 -3.820312 2.15625 -4.546875 1.6875 -5.390625 C 1.21875 -6.234375 0.90625 -7.207031 0.75 -8.3125 Z M 0.75 -8.3125 "/></g></g></g><g fill="#3edbf0" fill-opacity="1"><g transform="translate(69.537134, 29.901323)"><g><path d="M 5.03125 -11.21875 C 6.039062 -12.125 7.09375 -12.671875 8.1875 -12.859375 C 9.28125 -13.046875 10.285156 -12.925781 11.203125 -12.5 C 12.128906 -12.082031 12.894531 -11.40625 13.5 -10.46875 C 14.101562 -9.53125 14.425781 -8.394531 14.46875 -7.0625 C 14.488281 -6.5625 14.5 -6.066406 14.5 -5.578125 C 14.5 -5.085938 14.5 -4.597656 14.5 -4.109375 C 14.5 -3.734375 14.476562 -3.367188 14.4375 -3.015625 C 14.40625 -2.671875 14.320312 -2.359375 14.1875 -2.078125 C 14.050781 -1.796875 13.863281 -1.5625 13.625 -1.375 C 13.382812 -1.1875 13.070312 -1.070312 12.6875 -1.03125 C 12.238281 -1 11.851562 -1.0625 11.53125 -1.21875 C 11.21875 -1.382812 10.960938 -1.601562 10.765625 -1.875 C 10.566406 -2.15625 10.421875 -2.46875 10.328125 -2.8125 C 10.242188 -3.15625 10.21875 -3.5 10.25 -3.84375 C 10.269531 -4.457031 10.304688 -5.070312 10.359375 -5.6875 C 10.410156 -6.300781 10.332031 -6.882812 10.125 -7.4375 C 9.875 -8.144531 9.472656 -8.582031 8.921875 -8.75 C 8.367188 -8.914062 7.832031 -8.820312 7.3125 -8.46875 C 6.789062 -8.113281 6.351562 -7.5 6 -6.625 C 5.644531 -5.757812 5.535156 -4.632812 5.671875 -3.25 C 5.710938 -2.863281 5.648438 -2.507812 5.484375 -2.1875 C 5.328125 -1.863281 5.113281 -1.585938 4.84375 -1.359375 C 4.582031 -1.140625 4.285156 -0.984375 3.953125 -0.890625 C 3.628906 -0.804688 3.316406 -0.800781 3.015625 -0.875 C 2.585938 -1 2.238281 -1.25 1.96875 -1.625 C 1.707031 -2 1.554688 -2.40625 1.515625 -2.84375 C 1.441406 -3.507812 1.390625 -4.164062 1.359375 -4.8125 C 1.328125 -5.457031 1.28125 -6.097656 1.21875 -6.734375 C 1.132812 -7.941406 1.035156 -9.140625 0.921875 -10.328125 C 0.816406 -11.523438 0.722656 -12.726562 0.640625 -13.9375 C 0.609375 -14.425781 0.566406 -14.914062 0.515625 -15.40625 C 0.472656 -15.894531 0.441406 -16.390625 0.421875 -16.890625 C 0.390625 -17.265625 0.4375 -17.609375 0.5625 -17.921875 C 0.6875 -18.242188 0.863281 -18.519531 1.09375 -18.75 C 1.320312 -18.976562 1.59375 -19.140625 1.90625 -19.234375 C 2.226562 -19.335938 2.578125 -19.363281 2.953125 -19.3125 C 3.421875 -19.226562 3.800781 -19.015625 4.09375 -18.671875 C 4.382812 -18.335938 4.546875 -17.910156 4.578125 -17.390625 C 4.617188 -16.878906 4.648438 -16.367188 4.671875 -15.859375 C 4.703125 -15.359375 4.734375 -14.847656 4.765625 -14.328125 C 4.804688 -13.835938 4.851562 -13.335938 4.90625 -12.828125 C 4.957031 -12.316406 5 -11.78125 5.03125 -11.21875 Z M 5.03125 -11.21875 "/></g></g></g><g fill="#3edbf0" fill-opacity="1"><g transform="translate(85.2507, 29.901323)"><g/></g></g><g fill="#3edbf0" fill-opacity="1"><g transform="translate(95.131619, 29.901323)"><g><path d="M 11.328125 -21.171875 C 11.867188 -21.035156 12.28125 -20.773438 12.5625 -20.390625 C 12.851562 -20.015625 12.960938 -19.566406 12.890625 -19.046875 C 12.835938 -18.585938 12.628906 -18.195312 12.265625 -17.875 C 11.898438 -17.550781 11.453125 -17.382812 10.921875 -17.375 C 10.347656 -17.375 9.769531 -17.4375 9.1875 -17.5625 C 8.601562 -17.695312 8.054688 -17.785156 7.546875 -17.828125 C 6.878906 -17.859375 6.300781 -17.726562 5.8125 -17.4375 C 5.332031 -17.144531 5.003906 -16.785156 4.828125 -16.359375 C 4.660156 -15.929688 4.691406 -15.492188 4.921875 -15.046875 C 5.160156 -14.609375 5.671875 -14.253906 6.453125 -13.984375 C 7.335938 -13.722656 8.234375 -13.445312 9.140625 -13.15625 C 10.054688 -12.875 10.878906 -12.492188 11.609375 -12.015625 C 12.941406 -11.128906 13.875 -10.148438 14.40625 -9.078125 C 14.945312 -8.015625 15.164062 -6.960938 15.0625 -5.921875 C 14.96875 -4.890625 14.601562 -3.925781 13.96875 -3.03125 C 13.34375 -2.144531 12.539062 -1.445312 11.5625 -0.9375 C 11.03125 -0.664062 10.367188 -0.457031 9.578125 -0.3125 C 8.785156 -0.175781 7.972656 -0.101562 7.140625 -0.09375 C 6.304688 -0.0820312 5.503906 -0.132812 4.734375 -0.25 C 3.972656 -0.363281 3.351562 -0.53125 2.875 -0.75 C 2.394531 -0.976562 2.050781 -1.289062 1.84375 -1.6875 C 1.644531 -2.09375 1.609375 -2.523438 1.734375 -2.984375 C 1.835938 -3.410156 2.078125 -3.757812 2.453125 -4.03125 C 2.828125 -4.3125 3.253906 -4.441406 3.734375 -4.421875 C 4.222656 -4.398438 4.738281 -4.351562 5.28125 -4.28125 C 5.820312 -4.21875 6.347656 -4.160156 6.859375 -4.109375 C 7.378906 -4.066406 7.878906 -4.054688 8.359375 -4.078125 C 8.835938 -4.097656 9.257812 -4.1875 9.625 -4.34375 C 10.039062 -4.519531 10.382812 -4.78125 10.65625 -5.125 C 10.925781 -5.46875 11.0625 -5.847656 11.0625 -6.265625 C 11.070312 -6.691406 10.9375 -7.128906 10.65625 -7.578125 C 10.375 -8.035156 9.894531 -8.46875 9.21875 -8.875 C 8.789062 -9.132812 8.347656 -9.34375 7.890625 -9.5 C 7.441406 -9.664062 7 -9.804688 6.5625 -9.921875 C 6.132812 -10.035156 5.703125 -10.148438 5.265625 -10.265625 C 4.828125 -10.378906 4.410156 -10.523438 4.015625 -10.703125 C 3.296875 -11.023438 2.691406 -11.414062 2.203125 -11.875 C 1.722656 -12.34375 1.359375 -12.847656 1.109375 -13.390625 C 0.867188 -13.941406 0.722656 -14.503906 0.671875 -15.078125 C 0.617188 -15.648438 0.644531 -16.203125 0.75 -16.734375 C 0.925781 -17.546875 1.21875 -18.257812 1.625 -18.875 C 2.03125 -19.488281 2.519531 -20.003906 3.09375 -20.421875 C 3.675781 -20.835938 4.332031 -21.148438 5.0625 -21.359375 C 5.789062 -21.578125 6.5625 -21.6875 7.375 -21.6875 C 8.050781 -21.6875 8.722656 -21.632812 9.390625 -21.53125 C 10.054688 -21.4375 10.703125 -21.316406 11.328125 -21.171875 Z M 11.328125 -21.171875 "/></g></g></g><g fill="#3edbf0" fill-opacity="1"><g transform="translate(111.084872, 29.901323)"><g><path d="M 9.78125 -19.09375 C 9.738281 -18.195312 9.703125 -17.328125 9.671875 -16.484375 C 9.648438 -15.648438 9.640625 -14.804688 9.640625 -13.953125 C 9.660156 -11.578125 9.664062 -9.367188 9.65625 -7.328125 C 9.644531 -5.285156 9.710938 -3.296875 9.859375 -1.359375 C 9.890625 -0.828125 9.757812 -0.367188 9.46875 0.015625 C 9.175781 0.410156 8.78125 0.660156 8.28125 0.765625 C 7.75 0.878906 7.25 0.804688 6.78125 0.546875 C 6.320312 0.285156 6.003906 -0.0976562 5.828125 -0.609375 C 5.722656 -0.929688 5.644531 -1.335938 5.59375 -1.828125 C 5.539062 -2.316406 5.507812 -2.820312 5.5 -3.34375 C 5.488281 -3.863281 5.484375 -4.375 5.484375 -4.875 C 5.484375 -5.375 5.484375 -5.789062 5.484375 -6.125 C 5.484375 -8.0625 5.492188 -9.984375 5.515625 -11.890625 C 5.535156 -13.804688 5.550781 -15.726562 5.5625 -17.65625 L 5.5625 -18.734375 C 5.125 -18.796875 4.597656 -18.859375 3.984375 -18.921875 C 3.367188 -18.984375 2.789062 -19.09375 2.25 -19.25 C 1.707031 -19.414062 1.265625 -19.660156 0.921875 -19.984375 C 0.578125 -20.316406 0.4375 -20.796875 0.5 -21.421875 C 0.539062 -21.679688 0.628906 -21.925781 0.765625 -22.15625 C 0.910156 -22.394531 1.09375 -22.597656 1.3125 -22.765625 C 1.539062 -22.929688 1.789062 -23.050781 2.0625 -23.125 C 2.34375 -23.207031 2.632812 -23.242188 2.9375 -23.234375 L 3.328125 -23.15625 C 4.179688 -22.863281 5.097656 -22.707031 6.078125 -22.6875 C 7.066406 -22.675781 8.054688 -22.738281 9.046875 -22.875 C 10.046875 -23.019531 11.007812 -23.226562 11.9375 -23.5 C 12.875 -23.78125 13.726562 -24.082031 14.5 -24.40625 C 15.207031 -24.71875 15.828125 -24.773438 16.359375 -24.578125 C 16.890625 -24.390625 17.253906 -24.070312 17.453125 -23.625 C 17.660156 -23.1875 17.671875 -22.695312 17.484375 -22.15625 C 17.296875 -21.613281 16.859375 -21.164062 16.171875 -20.8125 C 15.710938 -20.5625 15.191406 -20.347656 14.609375 -20.171875 C 14.035156 -20.003906 13.453125 -19.851562 12.859375 -19.71875 C 12.273438 -19.59375 11.710938 -19.476562 11.171875 -19.375 C 10.628906 -19.28125 10.164062 -19.1875 9.78125 -19.09375 Z M 9.78125 -19.09375 "/></g></g></g><g fill="#3edbf0" fill-opacity="1"><g transform="translate(123.096436, 29.901323)"><g><path d="M 5.0625 -17.640625 C 5.09375 -16.710938 5.113281 -15.804688 5.125 -14.921875 C 5.132812 -14.035156 5.15625 -13.140625 5.1875 -12.234375 C 5.601562 -12.234375 5.992188 -12.234375 6.359375 -12.234375 C 6.734375 -12.242188 7.097656 -12.242188 7.453125 -12.234375 C 7.671875 -12.210938 7.878906 -12.191406 8.078125 -12.171875 C 8.285156 -12.148438 8.488281 -12.109375 8.6875 -12.046875 C 9.164062 -11.878906 9.53125 -11.59375 9.78125 -11.1875 C 10.039062 -10.78125 10.128906 -10.351562 10.046875 -9.90625 C 9.953125 -9.445312 9.734375 -9.066406 9.390625 -8.765625 C 9.046875 -8.460938 8.625 -8.300781 8.125 -8.28125 C 7.789062 -8.269531 7.457031 -8.265625 7.125 -8.265625 C 6.800781 -8.273438 6.46875 -8.28125 6.125 -8.28125 C 5.988281 -8.28125 5.835938 -8.273438 5.671875 -8.265625 C 5.515625 -8.265625 5.335938 -8.253906 5.140625 -8.234375 C 5.109375 -7.554688 5.082031 -6.878906 5.0625 -6.203125 C 5.039062 -5.523438 5.015625 -4.851562 4.984375 -4.1875 C 5.316406 -4.132812 5.710938 -4.109375 6.171875 -4.109375 C 6.640625 -4.109375 7.117188 -4.109375 7.609375 -4.109375 C 8.097656 -4.117188 8.570312 -4.132812 9.03125 -4.15625 C 9.488281 -4.1875 9.878906 -4.222656 10.203125 -4.265625 C 10.710938 -4.296875 11.132812 -4.179688 11.46875 -3.921875 C 11.800781 -3.671875 12.019531 -3.359375 12.125 -2.984375 C 12.226562 -2.609375 12.195312 -2.21875 12.03125 -1.8125 C 11.875 -1.40625 11.578125 -1.066406 11.140625 -0.796875 C 10.941406 -0.671875 10.726562 -0.566406 10.5 -0.484375 C 10.269531 -0.410156 10.046875 -0.363281 9.828125 -0.34375 C 8.890625 -0.289062 7.847656 -0.25 6.703125 -0.21875 C 5.554688 -0.195312 4.507812 -0.175781 3.5625 -0.15625 C 3.445312 -0.15625 3.328125 -0.164062 3.203125 -0.1875 C 3.085938 -0.207031 2.96875 -0.234375 2.84375 -0.265625 C 2.207031 -0.410156 1.710938 -0.695312 1.359375 -1.125 C 1.003906 -1.550781 0.835938 -2.09375 0.859375 -2.75 C 0.859375 -3.6875 0.867188 -4.613281 0.890625 -5.53125 C 0.921875 -6.445312 0.941406 -7.375 0.953125 -8.3125 C 0.972656 -9.125 0.988281 -9.972656 1 -10.859375 C 1.019531 -11.753906 1.023438 -12.660156 1.015625 -13.578125 C 1.015625 -14.492188 0.992188 -15.394531 0.953125 -16.28125 C 0.921875 -17.164062 0.859375 -18.015625 0.765625 -18.828125 C 0.734375 -19.203125 0.769531 -19.5625 0.875 -19.90625 C 0.976562 -20.257812 1.140625 -20.554688 1.359375 -20.796875 C 1.585938 -21.046875 1.863281 -21.242188 2.1875 -21.390625 C 2.507812 -21.535156 2.875 -21.597656 3.28125 -21.578125 C 4.613281 -21.546875 5.816406 -21.515625 6.890625 -21.484375 C 7.960938 -21.460938 9.019531 -21.414062 10.0625 -21.34375 C 10.363281 -21.300781 10.65625 -21.25 10.9375 -21.1875 C 11.226562 -21.125 11.488281 -21.015625 11.71875 -20.859375 C 11.945312 -20.710938 12.132812 -20.523438 12.28125 -20.296875 C 12.425781 -20.066406 12.503906 -19.773438 12.515625 -19.421875 C 12.535156 -18.960938 12.398438 -18.550781 12.109375 -18.1875 C 11.828125 -17.820312 11.429688 -17.59375 10.921875 -17.5 C 10.421875 -17.414062 9.925781 -17.378906 9.4375 -17.390625 C 8.957031 -17.410156 8.472656 -17.445312 7.984375 -17.5 C 7.492188 -17.550781 7.003906 -17.59375 6.515625 -17.625 C 6.023438 -17.664062 5.539062 -17.671875 5.0625 -17.640625 Z M 5.0625 -17.640625 "/></g></g></g><g fill="#3edbf0" fill-opacity="1"><g transform="translate(136.199958, 29.901323)"><g><path d="M 11.03125 -6.015625 C 10 -6.128906 8.988281 -6.171875 8 -6.140625 C 7.019531 -6.109375 6.023438 -5.976562 5.015625 -5.75 C 4.992188 -5.625 4.976562 -5.503906 4.96875 -5.390625 C 4.957031 -5.273438 4.953125 -5.15625 4.953125 -5.03125 C 4.972656 -4.394531 4.992188 -3.757812 5.015625 -3.125 C 5.046875 -2.5 5.070312 -1.863281 5.09375 -1.21875 C 5.101562 -0.507812 4.867188 0.0390625 4.390625 0.4375 C 3.910156 0.832031 3.328125 0.972656 2.640625 0.859375 C 2.191406 0.785156 1.8125 0.585938 1.5 0.265625 C 1.1875 -0.0546875 1.003906 -0.460938 0.953125 -0.953125 C 0.921875 -1.367188 0.890625 -1.789062 0.859375 -2.21875 C 0.835938 -2.65625 0.828125 -3.085938 0.828125 -3.515625 C 0.785156 -4.929688 0.773438 -6.347656 0.796875 -7.765625 C 0.816406 -9.179688 0.925781 -10.609375 1.125 -12.046875 C 1.226562 -12.859375 1.429688 -13.734375 1.734375 -14.671875 C 2.035156 -15.617188 2.421875 -16.515625 2.890625 -17.359375 C 3.359375 -18.203125 3.914062 -18.953125 4.5625 -19.609375 C 5.21875 -20.265625 5.953125 -20.726562 6.765625 -21 C 7.398438 -21.207031 8.054688 -21.3125 8.734375 -21.3125 C 9.410156 -21.3125 10.0625 -21.195312 10.6875 -20.96875 C 11.320312 -20.75 11.90625 -20.414062 12.4375 -19.96875 C 12.96875 -19.53125 13.410156 -18.984375 13.765625 -18.328125 C 14.253906 -17.421875 14.601562 -16.492188 14.8125 -15.546875 C 15.019531 -14.597656 15.15625 -13.613281 15.21875 -12.59375 C 15.300781 -10.769531 15.316406 -8.957031 15.265625 -7.15625 C 15.210938 -5.363281 15.140625 -3.566406 15.046875 -1.765625 C 14.992188 -0.617188 14.476562 0.09375 13.5 0.375 C 13.144531 0.476562 12.804688 0.5 12.484375 0.4375 C 12.171875 0.375 11.894531 0.25 11.65625 0.0625 C 11.414062 -0.125 11.222656 -0.363281 11.078125 -0.65625 C 10.941406 -0.945312 10.875 -1.269531 10.875 -1.625 C 10.882812 -2.207031 10.898438 -2.785156 10.921875 -3.359375 C 10.953125 -3.941406 10.988281 -4.523438 11.03125 -5.109375 Z M 11.078125 -10.09375 C 11.117188 -10.195312 11.140625 -10.296875 11.140625 -10.390625 C 11.085938 -11.242188 11.039062 -12.070312 11 -12.875 C 10.96875 -13.6875 10.828125 -14.472656 10.578125 -15.234375 C 10.296875 -16.066406 9.921875 -16.59375 9.453125 -16.8125 C 8.992188 -17.039062 8.507812 -17.015625 8 -16.734375 C 7.5 -16.460938 7.015625 -15.972656 6.546875 -15.265625 C 6.085938 -14.554688 5.726562 -13.695312 5.46875 -12.6875 C 5.226562 -11.832031 5.109375 -10.90625 5.109375 -9.90625 C 6.128906 -9.945312 7.125 -9.976562 8.09375 -10 C 9.070312 -10.03125 10.066406 -10.0625 11.078125 -10.09375 Z M 11.078125 -10.09375 "/></g></g></g><g fill="#3edbf0" fill-opacity="1"><g transform="translate(152.526084, 29.901323)"><g><path d="M 9.53125 -12.8125 C 9.882812 -13.613281 10.28125 -14.519531 10.71875 -15.53125 C 11.15625 -16.539062 11.601562 -17.519531 12.0625 -18.46875 C 12.457031 -19.207031 12.894531 -19.78125 13.375 -20.1875 C 13.851562 -20.601562 14.320312 -20.898438 14.78125 -21.078125 C 15.25 -21.265625 15.6875 -21.359375 16.09375 -21.359375 C 16.5 -21.359375 16.835938 -21.304688 17.109375 -21.203125 C 17.597656 -21.003906 17.984375 -20.707031 18.265625 -20.3125 C 18.554688 -19.925781 18.773438 -19.28125 18.921875 -18.375 C 19.128906 -17.050781 19.25 -15.691406 19.28125 -14.296875 C 19.320312 -12.898438 19.296875 -11.519531 19.203125 -10.15625 C 19.117188 -8.800781 18.988281 -7.484375 18.8125 -6.203125 C 18.632812 -4.929688 18.445312 -3.722656 18.25 -2.578125 C 18.125 -1.867188 17.847656 -1.316406 17.421875 -0.921875 C 16.992188 -0.535156 16.5 -0.390625 15.9375 -0.484375 C 15.382812 -0.566406 14.929688 -0.859375 14.578125 -1.359375 C 14.222656 -1.859375 14.085938 -2.476562 14.171875 -3.21875 C 14.421875 -5.207031 14.640625 -7.21875 14.828125 -9.25 C 15.015625 -11.289062 15 -13.335938 14.78125 -15.390625 C 14.164062 -14.023438 13.585938 -12.648438 13.046875 -11.265625 C 12.503906 -9.878906 11.929688 -8.503906 11.328125 -7.140625 C 11.148438 -6.734375 10.90625 -6.441406 10.59375 -6.265625 C 10.28125 -6.085938 9.945312 -6.015625 9.59375 -6.046875 C 9.25 -6.078125 8.910156 -6.21875 8.578125 -6.46875 C 8.242188 -6.71875 7.957031 -7.078125 7.71875 -7.546875 C 7.613281 -7.753906 7.484375 -8.054688 7.328125 -8.453125 C 7.171875 -8.859375 7 -9.296875 6.8125 -9.765625 C 6.632812 -10.234375 6.457031 -10.710938 6.28125 -11.203125 C 6.101562 -11.691406 5.929688 -12.125 5.765625 -12.5 C 5.597656 -12.882812 5.441406 -13.191406 5.296875 -13.421875 C 5.160156 -13.648438 5.054688 -13.738281 4.984375 -13.6875 C 4.816406 -13.632812 4.707031 -13.390625 4.65625 -12.953125 C 4.601562 -12.523438 4.585938 -11.988281 4.609375 -11.34375 C 4.640625 -10.707031 4.695312 -10.003906 4.78125 -9.234375 C 4.875 -8.472656 4.976562 -7.722656 5.09375 -6.984375 C 5.21875 -6.253906 5.335938 -5.566406 5.453125 -4.921875 C 5.566406 -4.285156 5.675781 -3.78125 5.78125 -3.40625 C 5.957031 -2.75 5.941406 -2.132812 5.734375 -1.5625 C 5.535156 -1 5.238281 -0.59375 4.84375 -0.34375 C 4.363281 -0.0390625 3.863281 0.0351562 3.34375 -0.109375 C 2.820312 -0.265625 2.410156 -0.628906 2.109375 -1.203125 C 1.910156 -1.609375 1.75 -2.085938 1.625 -2.640625 C 0.71875 -7.046875 0.476562 -11.296875 0.90625 -15.390625 C 0.976562 -16.140625 1.164062 -16.8125 1.46875 -17.40625 C 1.769531 -18 2.128906 -18.488281 2.546875 -18.875 C 2.960938 -19.257812 3.421875 -19.519531 3.921875 -19.65625 C 4.429688 -19.800781 4.9375 -19.804688 5.4375 -19.671875 C 5.9375 -19.535156 6.410156 -19.242188 6.859375 -18.796875 C 7.316406 -18.359375 7.703125 -17.75 8.015625 -16.96875 C 8.316406 -16.238281 8.597656 -15.492188 8.859375 -14.734375 C 9.117188 -13.984375 9.34375 -13.34375 9.53125 -12.8125 Z M 9.53125 -12.8125 "/></g></g></g><g fill="#3edbf0" fill-opacity="1"><g transform="translate(172.634113, 29.901323)"><g/></g></g><g fill="#3edbf0" fill-opacity="1"><g transform="translate(182.515032, 29.901323)"><g><path d="M 5.0625 -17.640625 C 5.09375 -16.710938 5.113281 -15.804688 5.125 -14.921875 C 5.132812 -14.035156 5.15625 -13.140625 5.1875 -12.234375 C 5.601562 -12.234375 5.992188 -12.234375 6.359375 -12.234375 C 6.734375 -12.242188 7.097656 -12.242188 7.453125 -12.234375 C 7.671875 -12.210938 7.878906 -12.191406 8.078125 -12.171875 C 8.285156 -12.148438 8.488281 -12.109375 8.6875 -12.046875 C 9.164062 -11.878906 9.53125 -11.59375 9.78125 -11.1875 C 10.039062 -10.78125 10.128906 -10.351562 10.046875 -9.90625 C 9.953125 -9.445312 9.734375 -9.066406 9.390625 -8.765625 C 9.046875 -8.460938 8.625 -8.300781 8.125 -8.28125 C 7.789062 -8.269531 7.457031 -8.265625 7.125 -8.265625 C 6.800781 -8.273438 6.46875 -8.28125 6.125 -8.28125 C 5.988281 -8.28125 5.835938 -8.273438 5.671875 -8.265625 C 5.515625 -8.265625 5.335938 -8.253906 5.140625 -8.234375 C 5.109375 -7.554688 5.082031 -6.878906 5.0625 -6.203125 C 5.039062 -5.523438 5.015625 -4.851562 4.984375 -4.1875 C 5.316406 -4.132812 5.710938 -4.109375 6.171875 -4.109375 C 6.640625 -4.109375 7.117188 -4.109375 7.609375 -4.109375 C 8.097656 -4.117188 8.570312 -4.132812 9.03125 -4.15625 C 9.488281 -4.1875 9.878906 -4.222656 10.203125 -4.265625 C 10.710938 -4.296875 11.132812 -4.179688 11.46875 -3.921875 C 11.800781 -3.671875 12.019531 -3.359375 12.125 -2.984375 C 12.226562 -2.609375 12.195312 -2.21875 12.03125 -1.8125 C 11.875 -1.40625 11.578125 -1.066406 11.140625 -0.796875 C 10.941406 -0.671875 10.726562 -0.566406 10.5 -0.484375 C 10.269531 -0.410156 10.046875 -0.363281 9.828125 -0.34375 C 8.890625 -0.289062 7.847656 -0.25 6.703125 -0.21875 C 5.554688 -0.195312 4.507812 -0.175781 3.5625 -0.15625 C 3.445312 -0.15625 3.328125 -0.164062 3.203125 -0.1875 C 3.085938 -0.207031 2.96875 -0.234375 2.84375 -0.265625 C 2.207031 -0.410156 1.710938 -0.695312 1.359375 -1.125 C 1.003906 -1.550781 0.835938 -2.09375 0.859375 -2.75 C 0.859375 -3.6875 0.867188 -4.613281 0.890625 -5.53125 C 0.921875 -6.445312 0.941406 -7.375 0.953125 -8.3125 C 0.972656 -9.125 0.988281 -9.972656 1 -10.859375 C 1.019531 -11.753906 1.023438 -12.660156 1.015625 -13.578125 C 1.015625 -14.492188 0.992188 -15.394531 0.953125 -16.28125 C 0.921875 -17.164062 0.859375 -18.015625 0.765625 -18.828125 C 0.734375 -19.203125 0.769531 -19.5625 0.875 -19.90625 C 0.976562 -20.257812 1.140625 -20.554688 1.359375 -20.796875 C 1.585938 -21.046875 1.863281 -21.242188 2.1875 -21.390625 C 2.507812 -21.535156 2.875 -21.597656 3.28125 -21.578125 C 4.613281 -21.546875 5.816406 -21.515625 6.890625 -21.484375 C 7.960938 -21.460938 9.019531 -21.414062 10.0625 -21.34375 C 10.363281 -21.300781 10.65625 -21.25 10.9375 -21.1875 C 11.226562 -21.125 11.488281 -21.015625 11.71875 -20.859375 C 11.945312 -20.710938 12.132812 -20.523438 12.28125 -20.296875 C 12.425781 -20.066406 12.503906 -19.773438 12.515625 -19.421875 C 12.535156 -18.960938 12.398438 -18.550781 12.109375 -18.1875 C 11.828125 -17.820312 11.429688 -17.59375 10.921875 -17.5 C 10.421875 -17.414062 9.925781 -17.378906 9.4375 -17.390625 C 8.957031 -17.410156 8.472656 -17.445312 7.984375 -17.5 C 7.492188 -17.550781 7.003906 -17.59375 6.515625 -17.625 C 6.023438 -17.664062 5.539062 -17.671875 5.0625 -17.640625 Z M 5.0625 -17.640625 "/></g></g></g><g fill="#3edbf0" fill-opacity="1"><g transform="translate(195.618554, 29.901323)"><g><path d="M 6.984375 -6.46875 C 7.691406 -8.332031 8.347656 -10.1875 8.953125 -12.03125 C 9.554688 -13.882812 10.160156 -15.753906 10.765625 -17.640625 C 11.140625 -18.804688 11.894531 -19.347656 13.03125 -19.265625 C 13.632812 -19.222656 14.113281 -18.976562 14.46875 -18.53125 C 14.820312 -18.09375 14.953125 -17.570312 14.859375 -16.96875 C 14.847656 -16.882812 14.835938 -16.804688 14.828125 -16.734375 C 14.816406 -16.660156 14.796875 -16.578125 14.765625 -16.484375 C 14.160156 -14.691406 13.5625 -12.910156 12.96875 -11.140625 C 12.382812 -9.378906 11.78125 -7.609375 11.15625 -5.828125 C 11 -5.367188 10.820312 -4.914062 10.625 -4.46875 C 10.4375 -4.03125 10.21875 -3.609375 9.96875 -3.203125 C 9.613281 -2.554688 9.191406 -2.0625 8.703125 -1.71875 C 8.210938 -1.375 7.703125 -1.1875 7.171875 -1.15625 C 6.648438 -1.132812 6.128906 -1.265625 5.609375 -1.546875 C 5.097656 -1.828125 4.648438 -2.28125 4.265625 -2.90625 C 3.734375 -3.738281 3.265625 -4.644531 2.859375 -5.625 C 2.460938 -6.601562 2.117188 -7.609375 1.828125 -8.640625 C 1.546875 -9.679688 1.3125 -10.734375 1.125 -11.796875 C 0.945312 -12.867188 0.800781 -13.910156 0.6875 -14.921875 C 0.632812 -15.304688 0.679688 -15.65625 0.828125 -15.96875 C 0.984375 -16.28125 1.1875 -16.53125 1.4375 -16.71875 C 1.6875 -16.914062 1.972656 -17.046875 2.296875 -17.109375 C 2.628906 -17.171875 2.945312 -17.171875 3.25 -17.109375 C 3.65625 -16.992188 3.988281 -16.804688 4.25 -16.546875 C 4.519531 -16.296875 4.679688 -15.957031 4.734375 -15.53125 C 4.859375 -14.65625 4.984375 -13.828125 5.109375 -13.046875 C 5.234375 -12.265625 5.375 -11.507812 5.53125 -10.78125 C 5.695312 -10.0625 5.890625 -9.34375 6.109375 -8.625 C 6.335938 -7.914062 6.628906 -7.195312 6.984375 -6.46875 Z M 6.984375 -6.46875 "/></g></g></g><g fill="#3edbf0" fill-opacity="1"><g transform="translate(210.479843, 29.901323)"><g><path d="M 5.546875 -6.5 C 5.609375 -6.050781 5.800781 -5.691406 6.125 -5.421875 C 6.445312 -5.148438 6.820312 -4.957031 7.25 -4.84375 C 7.6875 -4.738281 8.144531 -4.710938 8.625 -4.765625 C 9.101562 -4.816406 9.554688 -4.96875 9.984375 -5.21875 C 10.285156 -5.394531 10.585938 -5.523438 10.890625 -5.609375 C 11.191406 -5.691406 11.519531 -5.6875 11.875 -5.59375 C 12.25 -5.488281 12.554688 -5.316406 12.796875 -5.078125 C 13.035156 -4.835938 13.203125 -4.566406 13.296875 -4.265625 C 13.398438 -3.960938 13.410156 -3.644531 13.328125 -3.3125 C 13.253906 -2.988281 13.082031 -2.679688 12.8125 -2.390625 C 12.425781 -1.984375 11.988281 -1.660156 11.5 -1.421875 C 11.007812 -1.179688 10.476562 -1.007812 9.90625 -0.90625 C 8.507812 -0.632812 7.242188 -0.660156 6.109375 -0.984375 C 4.984375 -1.304688 4.023438 -1.832031 3.234375 -2.5625 C 2.441406 -3.300781 1.832031 -4.191406 1.40625 -5.234375 C 0.976562 -6.273438 0.765625 -7.378906 0.765625 -8.546875 C 0.765625 -9.679688 0.929688 -10.75 1.265625 -11.75 C 1.609375 -12.757812 2.09375 -13.632812 2.71875 -14.375 C 3.351562 -15.125 4.117188 -15.726562 5.015625 -16.1875 C 5.910156 -16.65625 6.921875 -16.925781 8.046875 -17 C 9.328125 -17.070312 10.398438 -16.867188 11.265625 -16.390625 C 12.140625 -15.910156 12.796875 -15.28125 13.234375 -14.5 C 13.679688 -13.726562 13.914062 -12.875 13.9375 -11.9375 C 13.96875 -11.007812 13.789062 -10.144531 13.40625 -9.34375 C 13.03125 -8.550781 12.4375 -7.882812 11.625 -7.34375 C 10.820312 -6.800781 9.816406 -6.519531 8.609375 -6.5 C 8.128906 -6.476562 7.640625 -6.472656 7.140625 -6.484375 C 6.640625 -6.492188 6.109375 -6.5 5.546875 -6.5 Z M 5.28125 -10.5 C 5.707031 -10.457031 6.125 -10.425781 6.53125 -10.40625 C 6.9375 -10.394531 7.34375 -10.390625 7.75 -10.390625 C 8.425781 -10.390625 8.953125 -10.53125 9.328125 -10.8125 C 9.703125 -11.101562 9.910156 -11.414062 9.953125 -11.75 C 9.992188 -12.082031 9.875 -12.390625 9.59375 -12.671875 C 9.3125 -12.960938 8.847656 -13.109375 8.203125 -13.109375 C 7.867188 -13.109375 7.539062 -13.035156 7.21875 -12.890625 C 6.894531 -12.753906 6.601562 -12.566406 6.34375 -12.328125 C 6.09375 -12.085938 5.875 -11.804688 5.6875 -11.484375 C 5.5 -11.160156 5.363281 -10.832031 5.28125 -10.5 Z M 5.28125 -10.5 "/></g></g></g><g fill="#3edbf0" fill-opacity="1"><g transform="translate(225.447676, 29.901323)"><g><path d="M 4.875 -12.84375 C 5.300781 -13.550781 5.828125 -14.203125 6.453125 -14.796875 C 7.085938 -15.390625 7.785156 -15.859375 8.546875 -16.203125 C 9.316406 -16.554688 10.140625 -16.738281 11.015625 -16.75 C 11.890625 -16.769531 12.789062 -16.566406 13.71875 -16.140625 C 14.476562 -15.785156 15.097656 -15.289062 15.578125 -14.65625 C 16.054688 -14.03125 16.421875 -13.285156 16.671875 -12.421875 C 16.890625 -11.617188 17 -10.8125 17 -10 C 17.007812 -9.195312 16.957031 -8.394531 16.84375 -7.59375 C 16.726562 -6.789062 16.5625 -6 16.34375 -5.21875 C 16.132812 -4.4375 15.925781 -3.679688 15.71875 -2.953125 C 15.519531 -2.316406 15.171875 -1.851562 14.671875 -1.5625 C 14.179688 -1.269531 13.648438 -1.21875 13.078125 -1.40625 C 12.546875 -1.582031 12.15625 -1.894531 11.90625 -2.34375 C 11.65625 -2.789062 11.582031 -3.320312 11.6875 -3.9375 C 11.726562 -4.238281 11.785156 -4.53125 11.859375 -4.8125 C 11.941406 -5.101562 12.019531 -5.398438 12.09375 -5.703125 C 12.21875 -6.265625 12.335938 -6.816406 12.453125 -7.359375 C 12.566406 -7.898438 12.660156 -8.457031 12.734375 -9.03125 C 12.859375 -10.132812 12.773438 -10.941406 12.484375 -11.453125 C 12.203125 -11.972656 11.820312 -12.25 11.34375 -12.28125 C 10.863281 -12.3125 10.332031 -12.128906 9.75 -11.734375 C 9.175781 -11.335938 8.660156 -10.773438 8.203125 -10.046875 C 7.878906 -9.523438 7.617188 -9.003906 7.421875 -8.484375 C 7.234375 -7.960938 7.085938 -7.429688 6.984375 -6.890625 C 6.890625 -6.347656 6.828125 -5.800781 6.796875 -5.25 C 6.773438 -4.695312 6.765625 -4.144531 6.765625 -3.59375 C 6.785156 -2.914062 6.628906 -2.351562 6.296875 -1.90625 C 5.972656 -1.46875 5.535156 -1.207031 4.984375 -1.125 C 4.410156 -1.03125 3.894531 -1.140625 3.4375 -1.453125 C 2.988281 -1.773438 2.695312 -2.273438 2.5625 -2.953125 C 2.332031 -4.003906 2.117188 -5.050781 1.921875 -6.09375 C 1.722656 -7.144531 1.507812 -8.203125 1.28125 -9.265625 C 1.113281 -10.015625 0.953125 -10.753906 0.796875 -11.484375 C 0.640625 -12.210938 0.472656 -12.945312 0.296875 -13.6875 C 0.128906 -14.363281 0.15625 -14.960938 0.375 -15.484375 C 0.601562 -16.015625 1.003906 -16.378906 1.578125 -16.578125 C 2.140625 -16.765625 2.671875 -16.71875 3.171875 -16.4375 C 3.679688 -16.164062 4.054688 -15.722656 4.296875 -15.109375 C 4.410156 -14.753906 4.507812 -14.390625 4.59375 -14.015625 C 4.675781 -13.640625 4.769531 -13.25 4.875 -12.84375 Z M 4.875 -12.84375 "/></g></g></g><g fill="#3edbf0" fill-opacity="1"><g transform="translate(243.877805, 29.901323)"><g><path d="M 5.0625 -9.59375 C 4.738281 -9.59375 4.4375 -9.585938 4.15625 -9.578125 C 3.882812 -9.566406 3.609375 -9.570312 3.328125 -9.59375 C 3.128906 -9.613281 2.9375 -9.628906 2.75 -9.640625 C 2.570312 -9.660156 2.394531 -9.695312 2.21875 -9.75 C 1.75 -9.90625 1.40625 -10.160156 1.1875 -10.515625 C 0.96875 -10.878906 0.875 -11.28125 0.90625 -11.71875 C 0.957031 -12.195312 1.113281 -12.5625 1.375 -12.8125 C 1.644531 -13.0625 1.96875 -13.234375 2.34375 -13.328125 C 2.71875 -13.429688 3.113281 -13.484375 3.53125 -13.484375 C 3.945312 -13.492188 4.320312 -13.519531 4.65625 -13.5625 C 4.769531 -13.5625 4.882812 -13.566406 5 -13.578125 C 5.113281 -13.585938 5.238281 -13.597656 5.375 -13.609375 C 5.519531 -14.890625 5.660156 -16.140625 5.796875 -17.359375 C 5.941406 -18.578125 6.101562 -19.789062 6.28125 -21 C 6.332031 -21.332031 6.4375 -21.628906 6.59375 -21.890625 C 6.757812 -22.160156 6.96875 -22.375 7.21875 -22.53125 C 7.46875 -22.695312 7.738281 -22.800781 8.03125 -22.84375 C 8.320312 -22.882812 8.628906 -22.863281 8.953125 -22.78125 C 9.429688 -22.632812 9.800781 -22.378906 10.0625 -22.015625 C 10.332031 -21.648438 10.441406 -21.191406 10.390625 -20.640625 C 10.296875 -19.453125 10.171875 -18.289062 10.015625 -17.15625 C 9.859375 -16.019531 9.71875 -14.875 9.59375 -13.71875 C 9.84375 -13.71875 10.066406 -13.722656 10.265625 -13.734375 C 10.472656 -13.742188 10.675781 -13.738281 10.875 -13.71875 C 11.1875 -13.695312 11.5 -13.648438 11.8125 -13.578125 C 12.125 -13.515625 12.398438 -13.40625 12.640625 -13.25 C 12.878906 -13.101562 13.070312 -12.910156 13.21875 -12.671875 C 13.375 -12.429688 13.460938 -12.132812 13.484375 -11.78125 C 13.492188 -11.363281 13.378906 -10.988281 13.140625 -10.65625 C 12.898438 -10.332031 12.578125 -10.101562 12.171875 -9.96875 C 11.992188 -9.894531 11.816406 -9.847656 11.640625 -9.828125 C 11.460938 -9.804688 11.285156 -9.789062 11.109375 -9.78125 C 10.828125 -9.757812 10.535156 -9.753906 10.234375 -9.765625 C 9.941406 -9.773438 9.628906 -9.78125 9.296875 -9.78125 C 9.265625 -8.78125 9.195312 -7.738281 9.09375 -6.65625 C 9 -5.570312 8.960938 -4.296875 8.984375 -2.828125 C 8.984375 -2.304688 8.890625 -1.851562 8.703125 -1.46875 C 8.523438 -1.09375 8.207031 -0.816406 7.75 -0.640625 C 7.320312 -0.484375 6.925781 -0.441406 6.5625 -0.515625 C 6.195312 -0.597656 5.882812 -0.757812 5.625 -1 C 5.375 -1.238281 5.171875 -1.539062 5.015625 -1.90625 C 4.867188 -2.269531 4.796875 -2.640625 4.796875 -3.015625 C 4.816406 -4.378906 4.859375 -5.578125 4.921875 -6.609375 C 4.984375 -7.640625 5.03125 -8.632812 5.0625 -9.59375 Z M 5.0625 -9.59375 "/></g></g></g></svg>